<svg width="125" height="96" viewBox="0 0 125 96" fill="none" xmlns="http://www.w3.org/2000/svg">
<g id="Group 35729">
<g id="Shape">
<path fill-rule="evenodd" clip-rule="evenodd" d="M23.6318 94.623C11.6849 94.623 2 85.2355 2 73.6553C2 62.0752 11.6849 52.6877 23.6318 52.6877C24.1399 52.6877 24.6438 52.7047 25.1431 52.7381C24.7962 50.8228 24.6151 48.8505 24.6151 46.8362C24.6151 28.5235 39.5827 13.6781 58.0461 13.6781C72.7863 13.6781 85.2984 23.1399 89.7452 36.2739C90.7988 36.1646 91.8687 36.1086 92.952 36.1086C109.515 36.1086 122.942 49.2075 122.942 65.3658C122.942 80.7167 110.823 93.3818 95.4102 94.6017V94.623H39.8634H23.6318ZM35.4271 94.623H28.579H35.4271Z" fill="white"/>
<path d="M35.4271 94.623H28.579M23.6318 94.623C11.6849 94.623 2 85.2354 2 73.6553C2 62.0752 11.6849 52.6877 23.6318 52.6877C24.1399 52.6877 24.6438 52.7047 25.1431 52.7381C24.7962 50.8228 24.6151 48.8505 24.6151 46.8362C24.6151 28.5235 39.5827 13.6781 58.0461 13.6781C72.7863 13.6781 85.2984 23.1399 89.7452 36.2739C90.7988 36.1646 91.8687 36.1086 92.952 36.1086C109.515 36.1086 122.942 49.2075 122.942 65.3658C122.942 80.7167 110.823 93.3818 95.4102 94.6017V94.623H39.8634H23.6318Z" stroke="#F05802" stroke-width="2.5" stroke-linecap="round"/>
</g>
<path id="Shape_2" fill-rule="evenodd" clip-rule="evenodd" d="M47.8323 20.8381C47.8323 52.2633 76.3672 78.1581 113.109 81.6542C108.505 87.2699 101.394 91.0796 93.2932 91.6782V91.6964H27.3123C19.3068 91.6964 5.93311 88.3511 5.93311 73.7016C5.93311 59.0522 16.3303 55.7068 27.3123 55.7068C27.7793 55.7068 28.2425 55.7214 28.7015 55.7501C28.3826 54.1064 28.3266 52.4122 28.2161 50.685C27.4703 39.018 32.6021 24.3142 47.8501 19.5287C47.8379 19.9649 47.8323 20.401 47.8323 20.8381ZM58.1605 70.0051C55.1727 70.0051 52.7505 72.379 52.7505 75.3074C52.7505 78.2358 55.1727 80.6097 58.1605 80.6097C61.1484 80.6097 63.5706 78.2358 63.5706 75.3074C63.5706 72.379 61.1484 70.0051 58.1605 70.0051Z" fill="#FFFBDF"/>
<path id="Oval" d="M58.5378 80.9696C61.5246 80.9696 63.9458 78.5681 63.9458 75.6058C63.9458 72.6434 61.5246 70.2419 58.5378 70.2419C55.5511 70.2419 53.1299 72.6434 53.1299 75.6058C53.1299 78.5681 55.5511 80.9696 58.5378 80.9696Z" stroke="#F05802" stroke-width="2.5"/>
<path id="Line" d="M43.2969 64.3899L50.1797 59.0328L43.2969 53.933" stroke="#F05802" stroke-width="2.5" stroke-linecap="round" stroke-linejoin="round"/>
<path id="Line_2" d="M73.7788 64.3899L66.896 59.0328L73.7788 53.933" stroke="#F05802" stroke-width="2.5" stroke-linecap="round" stroke-linejoin="round"/>
<path id="Oval_2" d="M67.8784 23.4305C74.2783 25.1105 79.3317 30.0747 81.0938 36.3946" stroke="#22A699" stroke-width="2.5" stroke-linecap="round"/>
<path id="Oval_3" d="M88.5274 6.85144C90.1566 6.85144 91.4772 5.54155 91.4772 3.92572C91.4772 2.30989 90.1566 1 88.5274 1C86.8983 1 85.5776 2.30989 85.5776 3.92572C85.5776 5.54155 86.8983 6.85144 88.5274 6.85144Z" stroke="#22A699" stroke-width="2"/>
<path id="Oval_4" d="M119.008 22.4545C120.638 22.4545 121.958 21.1446 121.958 19.5287C121.958 17.9129 120.638 16.603 119.008 16.603C117.379 16.603 116.059 17.9129 116.059 19.5287C116.059 21.1446 117.379 22.4545 119.008 22.4545Z" fill="#22A699"/>
<path id="Line-5" d="M96.1548 14.4163L104.373 22.5675M104.498 14.4163L96.2797 22.5675L104.498 14.4163Z" stroke="#22A699" stroke-width="2.5" stroke-linecap="round" stroke-linejoin="round"/>
<g id="Line-4">
<path fill-rule="evenodd" clip-rule="evenodd" d="M10.1467 31.8131L4.24707 37.6646L10.1467 31.8131ZM4.24707 31.8131L10.1467 37.6646L4.24707 31.8131Z" fill="#22A699"/>
<path d="M4.24707 31.8131L10.1467 37.6646M10.1467 31.8131L4.24707 37.6646L10.1467 31.8131Z" stroke="#22A699" stroke-width="2.5" stroke-linecap="round" stroke-linejoin="round"/>
</g>
<path id="Oval_5" d="M16.7486 25.3801C18.3778 25.3801 19.6984 24.0702 19.6984 22.4544C19.6984 20.8386 18.3778 19.5287 16.7486 19.5287C15.1195 19.5287 13.7988 20.8386 13.7988 22.4544C13.7988 24.0702 15.1195 25.3801 16.7486 25.3801Z" fill="#22A699"/>
</g>
</svg>
