<svg width="65" height="85" viewBox="0 0 65 85" fill="none" xmlns="http://www.w3.org/2000/svg">
<path id="Vector" d="M0 85L32.5 61.7551L65 85V8C65 3.58172 61.4183 0 57 0H8C3.58172 0 0 3.58172 0 8V85ZM17.9911 28.5646L26.3482 27.4082C26.8125 27.2925 27.2768 27.0612 27.5089 26.5986L31.2232 19.0816C31.8036 18.0408 33.3125 18.0408 33.8929 19.0816L37.6071 26.5986C37.8393 27.0612 38.1875 27.2925 38.7679 27.4082L47.125 28.5646C48.2857 28.7959 48.8661 30.1837 47.9375 31.1088L41.7857 37.0068C41.4375 37.3537 41.3214 37.8163 41.3214 38.2789L42.7143 46.6054C42.9464 47.7619 41.6696 48.6871 40.625 48.1088L33.1964 44.1769C32.7321 43.9456 32.2679 43.9456 31.8036 44.1769L24.375 48.1088C23.3304 48.6871 22.0536 47.7619 22.2857 46.6054L23.6786 38.2789C23.7946 37.8163 23.5625 37.3537 23.2143 37.0068L17.1786 31.1088C16.25 30.2993 16.8304 28.7959 17.9911 28.5646Z" fill="#22A699"/>
</svg>
