<svg width="144" height="48" viewBox="0 0 144 48" fill="none" xmlns="http://www.w3.org/2000/svg">
<path d="M132.119 0.000119961H11.438C10.9981 0.000119961 10.5634 0.000119961 10.1246 0.00251919C9.75742 0.00491842 9.3931 0.0118762 9.02229 0.0177543C8.21677 0.0272296 7.41314 0.0980921 6.61839 0.229726C5.82474 0.364226 5.05596 0.617804 4.33804 0.981884C3.62103 1.34906 2.96587 1.82616 2.39635 2.39587C1.82383 2.96394 1.34658 3.62054 0.982964 4.34044C0.618332 5.05898 0.365502 5.82896 0.233205 6.62379C0.099641 7.41758 0.0277691 8.22052 0.0182341 9.02542C0.00707772 9.39322 0.00587811 9.76222 0 10.1301V37.8583C0.00587811 38.2307 0.00707772 38.5916 0.0182341 38.9643C0.0277781 39.7691 0.09965 40.572 0.233205 41.3657C0.365146 42.1609 0.617992 42.9313 0.982964 43.6501C1.34641 44.3677 1.82372 45.0217 2.39635 45.5866C2.96372 46.1589 3.61929 46.6363 4.33804 47.0006C5.05596 47.3657 5.82466 47.6208 6.61839 47.7574C7.41328 47.8879 8.21682 47.9588 9.02229 47.9694C9.39298 47.9776 9.75742 47.9823 10.1247 47.9823C10.5634 47.9847 10.9981 47.9847 11.438 47.9847H132.119C132.55 47.9847 132.988 47.9847 133.419 47.9823C133.785 47.9823 134.16 47.9776 134.526 47.9694C135.329 47.9594 136.132 47.8885 136.925 47.7574C137.721 47.6198 138.492 47.3648 139.214 47.0006C139.932 46.6361 140.587 46.1587 141.154 45.5866C141.725 45.0195 142.203 44.366 142.571 43.6501C142.934 42.9308 143.184 42.1605 143.314 41.3657C143.448 40.5718 143.522 39.7691 143.537 38.9642C143.541 38.5916 143.541 38.2307 143.541 37.8583C143.551 37.4224 143.551 36.989 143.551 36.5461V11.4399C143.551 11.0005 143.551 10.5648 143.541 10.1301C143.541 9.76222 143.541 9.39322 143.537 9.0253C143.522 8.22033 143.448 7.41757 143.314 6.62367C143.184 5.82938 142.933 5.05955 142.571 4.34056C141.831 2.89747 140.657 1.7228 139.214 0.981764C138.492 0.618577 137.721 0.365066 136.925 0.229606C136.132 0.0974124 135.33 0.0265453 134.526 0.0176343C134.16 0.0117562 133.785 0.00467849 133.419 0.00239923C132.988 0 132.55 0.000119961 132.119 0.000119961Z" fill="black"/>
<path d="M10.1302 46.9349C9.76471 46.9349 9.40807 46.9302 9.04542 46.9221C8.29422 46.9123 7.54477 46.847 6.80322 46.7265C6.11176 46.6074 5.44193 46.3858 4.81582 46.0691C4.19543 45.7551 3.62959 45.3433 3.13996 44.8496C2.64321 44.3617 2.22964 43.7958 1.91564 43.1744C1.59821 42.5489 1.37853 41.8784 1.26425 41.1864C1.14088 40.4427 1.07415 39.6908 1.06463 38.9371C1.05695 38.6841 1.047 37.8418 1.047 37.8418V10.1299C1.047 10.1299 1.05755 9.3005 1.06463 9.05674C1.07377 8.30423 1.14014 7.55351 1.26317 6.81107C1.37767 6.11711 1.59754 5.44473 1.91516 4.81719C2.22795 4.19615 2.63918 3.62981 3.13289 3.14013C3.62607 2.6458 4.19375 2.2319 4.81522 1.91352C5.43991 1.5979 6.10848 1.37796 6.79855 1.26105C7.54254 1.13944 8.29461 1.07371 9.04842 1.06444L10.1308 1.04956H133.414L134.509 1.0648C135.256 1.07367 136.001 1.13887 136.738 1.25985C137.435 1.37826 138.111 1.59977 138.743 1.91712C139.988 2.55872 141.001 3.57379 141.64 4.82007C141.952 5.4433 142.169 6.11024 142.282 6.79823C142.406 7.54675 142.476 8.30335 142.49 9.06202C142.494 9.40175 142.494 9.76667 142.494 10.1299C142.504 10.5798 142.504 11.0079 142.504 11.4397V36.5459C142.504 36.9817 142.504 37.407 142.494 37.8357C142.494 38.2258 142.494 38.5832 142.489 38.951C142.475 39.6962 142.407 40.4393 142.284 41.1745C142.172 41.8715 141.954 42.5472 141.636 43.1778C141.32 43.7925 140.909 44.3535 140.418 44.8401C139.928 45.3365 139.361 45.7507 138.739 46.0667C138.109 46.3858 137.435 46.6082 136.738 46.7263C135.997 46.8474 135.247 46.9128 134.496 46.9219C134.137 46.9303 133.778 46.9346 133.419 46.9348L132.119 46.9372L10.1302 46.9349Z" fill="white"/>
<path d="M29.9856 23.8597C29.999 22.8185 30.2756 21.7976 30.7896 20.892C31.3036 19.9863 32.0383 19.2255 32.9254 18.6801C32.3618 17.8753 31.6184 17.2129 30.7541 16.7457C29.8899 16.2784 28.9285 16.0191 27.9465 15.9884C25.8517 15.7685 23.8209 17.242 22.7534 17.242C21.6653 17.242 20.0217 16.0102 18.2518 16.0467C17.1071 16.0837 15.9914 16.4166 15.0136 17.013C14.0357 17.6093 13.229 18.4488 12.6721 19.4497C10.2594 23.6267 12.0591 29.7655 14.3701 33.1421C15.5263 34.7954 16.8777 36.6422 18.6459 36.5767C20.3762 36.5049 21.0226 35.4733 23.1111 35.4733C25.1804 35.4733 25.7867 36.5767 27.5908 36.535C29.4476 36.5049 30.6174 34.8744 31.7331 33.2054C32.5639 32.0273 33.2032 30.7252 33.6273 29.3474C32.5486 28.8912 31.6281 28.1275 30.9805 27.1517C30.3329 26.1758 29.9869 25.0309 29.9856 23.8597ZM26.578 13.7679C27.5904 12.5526 28.0891 10.9905 27.9683 9.41333C26.4217 9.57581 24.993 10.315 23.967 11.4837C23.4653 12.0547 23.0811 12.7189 22.8363 13.4384C22.5915 14.1579 22.4909 14.9186 22.5402 15.677C23.3138 15.685 24.0792 15.5173 24.7786 15.1866C25.4781 14.8559 26.0932 14.3709 26.578 13.7679ZM50.745 32.5572H45.0668L43.7032 36.5836H41.298L46.6764 21.6868H49.1752L54.5536 36.5836H52.1076L50.745 32.5572ZM45.6548 30.6992H50.1558L47.937 24.1646H47.8748L45.6548 30.6992ZM66.169 31.1538C66.169 34.5288 64.3625 36.6972 61.6365 36.6972C60.9459 36.7333 60.2591 36.5743 59.6548 36.2382C59.0504 35.9022 58.5529 35.4027 58.2192 34.797H58.1677V40.1766H55.9382V25.7227H58.0962V27.5292H58.1372C58.4862 26.9264 58.9921 26.4295 59.6011 26.0914C60.21 25.7533 60.8993 25.5866 61.5954 25.6091C64.3519 25.6091 66.169 27.7882 66.169 31.1538ZM63.8775 31.1538C63.8775 28.9549 62.7412 27.5093 61.0074 27.5093C59.3039 27.5093 58.1583 28.9853 58.1583 31.1537C58.1583 33.3421 59.3039 34.8077 61.0074 34.8077C62.7412 34.8077 63.8775 33.3727 63.8775 31.1538ZM78.1235 31.1538C78.1235 34.5288 76.3165 36.6972 73.5904 36.6972C72.8998 36.7333 72.213 36.5743 71.6087 36.2382C71.0043 35.9022 70.5068 35.4027 70.1732 34.797H70.1216V40.1766H67.8922V25.7227H70.0501V27.5292H70.0911C70.4401 26.9264 70.946 26.4295 71.555 26.0914C72.164 25.7533 72.8532 25.5866 73.5493 25.6091C76.3059 25.6091 78.1235 27.7882 78.1235 31.1538ZM75.8315 31.1538C75.8315 28.9549 74.6951 27.5093 72.9613 27.5093C71.2578 27.5093 70.1122 28.9853 70.1122 31.1537C70.1122 33.3421 71.2578 34.8077 72.9613 34.8077C74.6951 34.8077 75.8315 33.3727 75.8315 31.1538ZM86.0229 32.4331C86.1881 33.9103 87.6232 34.8803 89.5842 34.8803C91.4633 34.8803 92.8153 33.9103 92.8153 32.5782C92.8153 31.4219 91.9999 30.7296 90.0694 30.2552L88.1387 29.7901C85.4032 29.1293 84.1333 27.8501 84.1333 25.7741C84.1333 23.2038 86.3732 21.4385 89.5527 21.4385C92.7017 21.4385 94.8595 23.2038 94.9322 25.7741H92.6817C92.547 24.2876 91.318 23.3902 89.5222 23.3902C87.7263 23.3902 86.4974 24.2981 86.4974 25.6195C86.4974 26.6728 87.2823 27.2925 89.2024 27.7668L90.8436 28.1699C93.9001 28.8927 95.1688 30.1205 95.1688 32.2993C95.1688 35.0864 92.95 36.8319 89.419 36.8319C86.1153 36.8319 83.8849 35.1273 83.7408 32.433L86.0229 32.4331ZM99.9825 23.1525V25.7227H102.048V27.4882H99.9825V33.4757C99.9825 34.4058 100.396 34.8393 101.304 34.8393C101.549 34.835 101.794 34.8178 102.037 34.7877V36.5427C101.629 36.6189 101.214 36.6534 100.799 36.6456C98.6002 36.6456 97.7426 35.8198 97.7426 33.7134V27.4882H96.1634V25.7227H97.7426V23.1525H99.9825ZM103.243 31.1538C103.243 27.7365 105.255 25.5892 108.394 25.5892C111.543 25.5892 113.546 27.7365 113.546 31.1538C113.546 34.5804 111.553 36.7183 108.394 36.7183C105.235 36.7183 103.243 34.5804 103.243 31.1538ZM111.275 31.1538C111.275 28.8096 110.2 27.426 108.394 27.426C106.587 27.426 105.513 28.8201 105.513 31.1538C105.513 33.5073 106.587 34.8803 108.394 34.8803C110.2 34.8803 111.275 33.5073 111.275 31.1538ZM115.384 25.7227H117.51V27.5713H117.562C117.706 26.9939 118.044 26.4837 118.52 26.1263C118.996 25.769 119.58 25.5863 120.174 25.6091C120.431 25.6082 120.688 25.6361 120.938 25.6922V27.7775C120.614 27.6784 120.276 27.6329 119.937 27.6428C119.613 27.6296 119.29 27.6867 118.99 27.8102C118.69 27.9336 118.421 28.1204 118.2 28.3578C117.98 28.5952 117.813 28.8775 117.712 29.1854C117.61 29.4933 117.577 29.8195 117.614 30.1416V36.5836H115.384V25.7227ZM131.217 33.3936C130.917 35.3653 128.997 36.7183 126.54 36.7183C123.381 36.7183 121.42 34.6015 121.42 31.2053C121.42 27.7986 123.391 25.5892 126.447 25.5892C129.451 25.5892 131.341 27.6533 131.341 30.9464V31.7102H123.67V31.8449C123.635 32.2446 123.685 32.6473 123.817 33.0262C123.949 33.4051 124.16 33.7515 124.437 34.0425C124.713 34.3335 125.048 34.5623 125.42 34.7139C125.791 34.8654 126.191 34.9361 126.592 34.9213C127.119 34.9707 127.647 34.8487 128.099 34.5734C128.551 34.2981 128.902 33.8844 129.1 33.3936H131.217ZM123.681 30.1521H129.111C129.131 29.7927 129.076 29.4331 128.951 29.0957C128.825 28.7584 128.631 28.4506 128.381 28.1918C128.131 27.9329 127.83 27.7286 127.497 27.5916C127.164 27.4545 126.807 27.3878 126.447 27.3955C126.084 27.3934 125.724 27.4631 125.388 27.6008C125.052 27.7384 124.746 27.9412 124.489 28.1975C124.232 28.4538 124.028 28.7585 123.89 29.094C123.751 29.4294 123.68 29.7891 123.681 30.1521ZM45.376 10.4739C45.8434 10.4404 46.3125 10.511 46.7493 10.6806C47.1861 10.8503 47.5798 11.1148 47.902 11.4551C48.2242 11.7953 48.4668 12.2028 48.6124 12.6482C48.7581 13.0936 48.803 13.5658 48.7441 14.0306C48.7441 16.3173 47.5081 17.6319 45.376 17.6319H42.7905V10.4738L45.376 10.4739ZM43.9023 16.6195H45.2519C45.5859 16.6395 45.9201 16.5847 46.2302 16.4592C46.5403 16.3337 46.8186 16.1406 47.0447 15.894C47.2708 15.6474 47.4391 15.3535 47.5373 15.0337C47.6355 14.7139 47.6611 14.3762 47.6124 14.0452C47.6576 13.7155 47.6294 13.3799 47.5297 13.0624C47.43 12.7449 47.2613 12.4534 47.0357 12.2087C46.8101 11.9641 46.5332 11.7724 46.2248 11.6473C45.9164 11.5223 45.5842 11.467 45.2519 11.4854H43.9023V16.6195ZM50 14.9286C49.966 14.5736 50.0066 14.2154 50.1192 13.877C50.2317 13.5386 50.4138 13.2275 50.6536 12.9636C50.8935 12.6997 51.1858 12.4889 51.512 12.3446C51.8381 12.2003 52.1907 12.1258 52.5473 12.1258C52.904 12.1258 53.2566 12.2003 53.5827 12.3446C53.9089 12.4889 54.2012 12.6997 54.4411 12.9636C54.6809 13.2275 54.863 13.5386 54.9755 13.877C55.0881 14.2154 55.1287 14.5736 55.0947 14.9286C55.1294 15.284 55.0894 15.6427 54.9772 15.9817C54.8649 16.3207 54.683 16.6325 54.4431 16.8969C54.2032 17.1614 53.9106 17.3728 53.5841 17.5174C53.2576 17.6621 52.9044 17.7368 52.5473 17.7368C52.1903 17.7368 51.8371 17.6621 51.5106 17.5174C51.1841 17.3728 50.8915 17.1614 50.6516 16.8969C50.4117 16.6325 50.2298 16.3207 50.1175 15.9817C50.0053 15.6427 49.9653 15.284 50 14.9286ZM53.9983 14.9286C53.9983 13.7576 53.4722 13.0729 52.5491 13.0729C51.6224 13.0729 51.1012 13.7576 51.1012 14.9286C51.1012 16.1089 51.6226 16.7883 52.5491 16.7883C53.4722 16.7883 53.9983 16.1042 53.9983 14.9286ZM61.8673 17.6318H60.7612L59.6449 13.6534H59.5605L58.4488 17.6318H57.3535L55.8645 12.2299H56.9457L57.9135 16.3518H57.9931L59.1037 12.2299H60.1264L61.237 16.3518H61.3213L62.2842 12.2299H63.3503L61.8673 17.6318ZM64.6026 12.23H65.6289V13.0881H65.7085C65.8437 12.7799 66.0716 12.5215 66.3606 12.349C66.6496 12.1764 66.9851 12.0984 67.3206 12.1257C67.5834 12.1059 67.8473 12.1455 68.0928 12.2416C68.3382 12.3377 68.5589 12.4878 68.7384 12.6807C68.918 12.8737 69.0518 13.1046 69.1301 13.3563C69.2083 13.608 69.2289 13.874 69.1903 14.1348V17.6316H68.1242V14.4025C68.1242 13.5345 67.7469 13.1027 66.9585 13.1027C66.7801 13.0944 66.602 13.1248 66.4364 13.1918C66.2707 13.2588 66.1216 13.3608 65.9991 13.4908C65.8766 13.6208 65.7836 13.7758 65.7266 13.9451C65.6696 14.1144 65.6498 14.294 65.6687 14.4716V17.6318H64.6026V12.23ZM70.889 10.1212H71.9549V17.6318H70.889V10.1212ZM73.4369 14.9286C73.403 14.5735 73.4436 14.2153 73.5562 13.8769C73.6687 13.5385 73.8508 13.2273 74.0907 12.9634C74.3306 12.6994 74.623 12.4886 74.9491 12.3442C75.2753 12.1999 75.628 12.1254 75.9847 12.1254C76.3413 12.1254 76.6941 12.1999 77.0202 12.3442C77.3464 12.4886 77.6388 12.6994 77.8787 12.9634C78.1185 13.2273 78.3006 13.5385 78.4132 13.8769C78.5258 14.2153 78.5664 14.5735 78.5324 14.9286C78.5669 15.2839 78.5267 15.6425 78.4144 15.9814C78.3021 16.3203 78.1201 16.632 77.8802 16.8964C77.6402 17.1607 77.3477 17.372 77.0212 17.5166C76.6948 17.6611 76.3417 17.7358 75.9847 17.7358C75.6277 17.7358 75.2746 17.6611 74.9481 17.5166C74.6217 17.372 74.3291 17.1607 74.0892 16.8964C73.8492 16.632 73.6673 16.3203 73.5549 15.9814C73.4426 15.6425 73.4024 15.2839 73.4369 14.9286ZM77.4352 14.9286C77.4352 13.7576 76.9092 13.0729 75.9861 13.0729C75.0594 13.0729 74.5382 13.7576 74.5382 14.9286C74.5382 16.1089 75.0595 16.7883 75.9861 16.7883C76.9092 16.7883 77.4352 16.1042 77.4352 14.9286ZM79.6547 16.1042C79.6547 15.1318 80.3786 14.5712 81.6638 14.4915L83.1269 14.4072V13.9409C83.1269 13.3704 82.7498 13.0483 82.0211 13.0483C81.426 13.0483 81.0136 13.2667 80.8953 13.6487H79.8632C79.9721 12.7208 80.8449 12.1258 82.0703 12.1258C83.4246 12.1258 84.1884 12.8 84.1884 13.9409V17.6318H83.1621V16.8726H83.0778C82.9066 17.1449 82.6662 17.3669 82.3811 17.5159C82.0961 17.6649 81.7766 17.7356 81.4553 17.7208C81.2285 17.7444 80.9993 17.7202 80.7825 17.6497C80.5656 17.5793 80.366 17.4643 80.1963 17.312C80.0267 17.1596 79.8908 16.9735 79.7975 16.7655C79.7042 16.5574 79.6556 16.3322 79.6547 16.1042ZM83.1269 15.6426V15.1909L81.8078 15.2752C81.064 15.325 80.7265 15.5781 80.7265 16.0543C80.7265 16.5405 81.1483 16.8235 81.7282 16.8235C81.8981 16.8407 82.0698 16.8235 82.2329 16.773C82.3961 16.7225 82.5474 16.6397 82.6779 16.5296C82.8084 16.4194 82.9154 16.2841 82.9926 16.1317C83.0697 15.9793 83.1154 15.813 83.1269 15.6426ZM85.5895 14.9286C85.5895 13.2216 86.4669 12.1404 87.8317 12.1404C88.1693 12.1248 88.5044 12.2057 88.7977 12.3735C89.091 12.5413 89.3306 12.7892 89.4883 13.0881H89.5679V10.1211H90.6339V17.6316H89.6124V16.7781H89.5281C89.3582 17.075 89.1104 17.3198 88.8114 17.4859C88.5124 17.6521 88.1736 17.7332 87.8318 17.7207C86.4576 17.7207 85.5895 16.6394 85.5895 14.9286ZM86.6908 14.9286C86.6908 16.0742 87.2308 16.7637 88.1339 16.7637C89.0324 16.7637 89.5878 16.0643 89.5878 14.9331C89.5878 13.8074 89.0266 13.0981 88.1339 13.0981C87.2366 13.0981 86.6908 13.7922 86.6908 14.9286ZM95.0446 14.9286C95.0107 14.5736 95.0513 14.2154 95.1638 13.877C95.2764 13.5386 95.4584 13.2275 95.6983 12.9636C95.9381 12.6997 96.2305 12.4889 96.5566 12.3446C96.8827 12.2003 97.2354 12.1258 97.592 12.1258C97.9486 12.1258 98.3013 12.2003 98.6274 12.3446C98.9535 12.4889 99.2459 12.6997 99.4857 12.9636C99.7256 13.2275 99.9076 13.5386 100.02 13.877C100.133 14.2154 100.173 14.5736 100.139 14.9286C100.174 15.284 100.134 15.6427 100.022 15.9817C99.9096 16.3207 99.7277 16.6325 99.4877 16.8969C99.2478 17.1614 98.9552 17.3728 98.6287 17.5174C98.3022 17.6621 97.9491 17.7368 97.592 17.7368C97.2349 17.7368 96.8818 17.6621 96.5553 17.5174C96.2288 17.3728 95.9362 17.1614 95.6963 16.8969C95.4563 16.6325 95.2744 16.3207 95.1622 15.9817C95.05 15.6427 95.0099 15.284 95.0446 14.9286ZM99.0429 14.9286C99.0429 13.7576 98.5169 13.0729 97.5938 13.0729C96.6671 13.0729 96.1459 13.7576 96.1459 14.9286C96.1459 16.1089 96.6672 16.7883 97.5938 16.7883C98.5169 16.7883 99.0429 16.1042 99.0429 14.9286ZM101.57 12.23H102.596V13.0881H102.676C102.811 12.7799 103.039 12.5215 103.328 12.349C103.617 12.1764 103.952 12.0984 104.288 12.1257C104.551 12.1059 104.815 12.1455 105.06 12.2416C105.305 12.3377 105.526 12.4878 105.706 12.6807C105.885 12.8737 106.019 13.1046 106.097 13.3563C106.175 13.608 106.196 13.874 106.157 14.1348V17.6316H105.091V14.4025C105.091 13.5345 104.714 13.1027 103.926 13.1027C103.747 13.0944 103.569 13.1248 103.404 13.1918C103.238 13.2588 103.089 13.3608 102.966 13.4908C102.844 13.6208 102.751 13.7758 102.694 13.9451C102.637 14.1144 102.617 14.294 102.636 14.4716V17.6318H101.57L101.57 12.23ZM112.181 10.8851V12.2546H113.352V13.1525H112.181V15.9301C112.181 16.496 112.414 16.7438 112.945 16.7438C113.081 16.7433 113.217 16.7351 113.352 16.7191V17.6072C113.16 17.6414 112.966 17.6596 112.772 17.6616C111.586 17.6616 111.114 17.2445 111.114 16.2031V13.1525H110.257V12.2545H111.114V10.8853L112.181 10.8851ZM114.808 10.1212H115.865V13.0981H115.949C116.091 12.787 116.325 12.5271 116.619 12.3539C116.914 12.1808 117.255 12.1027 117.596 12.1303C117.857 12.1161 118.119 12.1598 118.361 12.2582C118.604 12.3566 118.822 12.5074 119 12.6997C119.177 12.8921 119.311 13.1213 119.389 13.371C119.468 13.6207 119.491 13.8847 119.456 14.1442V17.6318H118.389V14.4072C118.389 13.5443 117.987 13.1074 117.234 13.1074C117.051 13.0924 116.866 13.1176 116.694 13.1812C116.522 13.2449 116.365 13.3455 116.236 13.4759C116.106 13.6063 116.006 13.7635 115.944 13.9364C115.882 14.1093 115.858 14.2938 115.874 14.4769V17.6318H114.808V10.1212ZM125.672 16.1732C125.528 16.6669 125.214 17.0939 124.786 17.3796C124.358 17.6653 123.843 17.7915 123.332 17.736C122.976 17.7454 122.622 17.6773 122.295 17.5363C121.968 17.3953 121.676 17.1848 121.439 16.9196C121.201 16.6543 121.024 16.3405 120.92 16C120.816 15.6596 120.788 15.3005 120.836 14.9479C120.789 14.5941 120.818 14.2343 120.922 13.8928C121.026 13.5513 121.201 13.236 121.438 12.9684C121.674 12.7008 121.965 12.4871 122.291 12.3417C122.617 12.1963 122.97 12.1226 123.327 12.1257C124.83 12.1257 125.737 13.1525 125.737 14.8488V15.2208H121.922V15.2805C121.906 15.4787 121.931 15.6783 121.995 15.8663C122.06 16.0544 122.164 16.2267 122.299 16.3724C122.435 16.5181 122.599 16.6339 122.782 16.7124C122.965 16.7908 123.162 16.8302 123.361 16.828C123.616 16.8586 123.874 16.8127 124.103 16.6961C124.332 16.5795 124.521 16.3975 124.646 16.1732H125.672ZM121.922 14.4324H124.651C124.664 14.2511 124.64 14.069 124.578 13.8978C124.517 13.7266 124.421 13.5701 124.296 13.4383C124.171 13.3065 124.019 13.2024 123.851 13.1326C123.683 13.0628 123.503 13.0289 123.321 13.033C123.137 13.0307 122.954 13.0653 122.783 13.1348C122.612 13.2044 122.457 13.3074 122.327 13.4378C122.196 13.5682 122.093 13.7234 122.024 13.8942C121.954 14.065 121.92 14.248 121.922 14.4324Z" fill="black"/>
</svg>
