<svg width="69" height="82" viewBox="0 0 69 82" fill="none" xmlns="http://www.w3.org/2000/svg">
<g id="Group">
<path id="Vector" d="M61.0736 6.56H52.2011V1.81263C52.2011 0.863158 51.4258 0 50.3922 0H45.0514C44.1039 0 43.2425 0.776842 43.2425 1.81263V6.56H25.756V1.81263C25.756 0.863158 24.9807 0 23.947 0H18.6063C17.6588 0 16.7974 0.776842 16.7974 1.81263V6.56H8.01106C3.6179 6.56 0 10.1853 0 14.5874V56.7095C0 61.1116 3.6179 64.7368 8.01106 64.7368H14.8162C16.1083 74.4905 24.4639 82 34.4562 82C44.4485 82 52.8041 74.4905 54.0962 64.7368H60.9874C65.3806 64.7368 68.9985 61.1116 68.9985 56.7095V14.5874C69.0846 10.1853 65.4667 6.56 61.0736 6.56ZM34.5423 76.6484C26.5313 76.6484 20.0707 70.0884 20.0707 62.1474C20.0707 54.12 26.6174 47.6463 34.5423 47.6463C42.4672 47.6463 49.0139 54.2063 49.0139 62.1474C49.0139 70.0884 42.5534 76.6484 34.5423 76.6484ZM61.0736 59.3853H54.1823C53.6655 55.5874 52.115 52.1347 49.7892 49.3726L51.1674 47.9916L51.8565 48.6821C52.3734 49.2 53.1486 49.2 53.6655 48.6821L54.613 47.7326C55.1299 47.2147 55.1299 46.4379 54.613 45.92L50.8229 42.1221C50.306 41.6042 49.5308 41.6042 49.0139 42.1221L48.0664 43.0716C47.5495 43.5895 47.5495 44.3663 48.0664 44.8842L48.7555 45.5747L47.3772 46.9558C44.5346 44.5389 41.089 42.9853 37.2127 42.4674V39.9642H38.9355C39.6246 39.9642 40.2276 39.36 40.2276 38.6695V35.6484C40.2276 34.9579 39.6246 34.3537 38.9355 34.3537H30.1492C29.46 34.3537 28.857 34.9579 28.857 35.6484V38.6695C28.857 39.36 29.46 39.9642 30.1492 39.9642H31.872V42.4674C28.0818 42.9853 24.55 44.5389 21.7935 46.8695L20.4153 45.4884L21.1044 44.7979C21.6213 44.28 21.6213 43.5032 21.1044 42.9853L20.1569 42.0358C19.64 41.5179 18.8648 41.5179 18.3479 42.0358L14.5577 45.8337C14.0409 46.3516 14.0409 47.1284 14.5577 47.6463L15.5053 48.5958C16.0221 49.1137 16.7974 49.1137 17.3142 48.5958L18.0034 47.9053L19.3816 49.2863C17.0558 52.1347 15.4191 55.5874 14.9023 59.3853H8.0972C6.63281 59.3853 5.42685 58.1768 5.42685 56.7095V24.5137H63.7439V56.7095C63.7439 58.2632 62.538 59.3853 61.0736 59.3853Z" fill="#22A699"/>
<path id="Vector_2" d="M40.5713 59.4716H37.2118V54.12C37.2118 52.6526 36.0058 51.4442 34.5414 51.4442C33.0771 51.4442 31.8711 52.6526 31.8711 54.12V62.2337C31.8711 63.7011 33.0771 64.9095 34.5414 64.9095H40.5713C42.0357 64.9095 43.2416 63.7011 43.2416 62.2337C43.2416 60.5937 42.0357 59.4716 40.5713 59.4716Z" fill="#22A699"/>
</g>
</svg>
