<svg width="126" height="70" viewBox="0 0 126 70" fill="none" xmlns="http://www.w3.org/2000/svg">
<g id="Group">
<path id="Vector" fill-rule="evenodd" clip-rule="evenodd" d="M26.2203 0C17.49 0 10.3782 7.16424 10.3782 15.9345C10.3782 21.4376 13.1784 26.318 17.4214 29.1894C7.69722 32.7933 0.772965 42.2012 0.772965 53.2381V67.8412C0.771882 68.125 0.826981 68.4062 0.935086 68.6686C1.04319 68.931 1.20216 69.1694 1.40284 69.3701C1.60351 69.5708 1.84192 69.7298 2.10433 69.8379C2.36673 69.946 2.64793 70.0011 2.93173 70H38.7528C38.5038 69.3166 38.3636 68.5847 38.3664 67.8244V62.5115C38.3664 54.0329 42.6044 46.4818 49.0636 41.9403C46.2013 36.0668 41.1678 31.4718 35.0149 29.1936C39.2606 26.3226 42.0623 21.4397 42.0623 15.9345C42.0623 7.16424 34.9505 0 26.2203 0ZM100.08 0C91.3497 0 84.2379 7.16424 84.2379 15.9345C84.2379 21.4376 87.0381 26.318 91.2811 29.1894C85.1305 31.4663 80.0998 36.0618 77.2366 41.9319C83.6975 46.4734 87.9338 54.0304 87.9338 62.5115V67.8244C87.9367 68.5848 87.7963 69.3166 87.5474 70H123.381C123.664 69.9994 123.944 69.9431 124.205 69.8342C124.466 69.7254 124.702 69.5661 124.902 69.3656C125.101 69.1651 125.259 68.9273 125.366 68.6657C125.474 68.4041 125.528 68.124 125.527 67.8412V53.2381C125.527 42.2012 118.603 32.7933 108.879 29.1894C113.122 26.318 115.922 21.4376 115.922 15.9345C115.922 7.16424 108.81 0 100.08 0ZM63.1417 19.8866C56.0143 19.8866 50.2228 25.7905 50.2228 32.9693C50.2228 37.1811 52.2174 40.9492 55.3047 43.3473C47.8826 46.4719 42.6671 53.8858 42.6671 62.5115V67.8412C42.666 68.125 42.7211 68.4062 42.8292 68.6686C42.9373 68.931 43.0963 69.1694 43.297 69.3701C43.4977 69.5708 43.7361 69.7297 43.9985 69.8378C44.2609 69.946 44.5421 70.0011 44.8259 70H81.4743C81.7581 70.0011 82.0393 69.946 82.3017 69.8379C82.5641 69.7298 82.8025 69.5708 83.0032 69.3701C83.2039 69.1694 83.3629 68.931 83.471 68.6686C83.5791 68.4062 83.6342 68.125 83.6331 67.8412V62.5115C83.6331 53.879 78.4181 46.4592 70.9913 43.3389C74.078 40.9405 76.0774 37.1769 76.0774 32.9693C76.0774 25.7905 70.269 19.8866 63.1417 19.8866Z" fill="#22A699"/>
</g>
</svg>
