<svg width="162" height="48" viewBox="0 0 162 48" fill="none" xmlns="http://www.w3.org/2000/svg">
<path d="M155.263 47.8504H5.97164C2.68728 47.8504 0 45.1588 0 41.8691V5.98132C0 2.69158 2.68722 0 5.97164 0H155.263C158.547 0 161.234 2.69158 161.234 5.98132V41.869C161.234 45.1588 158.547 47.8504 155.263 47.8504Z" fill="white"/>
<path d="M155.263 0H5.97164C2.68728 0 0 2.69158 0 5.98132V41.869C0 45.1588 2.68722 47.8504 5.97164 47.8504H155.263C158.547 47.8504 161.234 45.1588 161.234 41.8691V5.98132C161.234 2.69158 158.547 0 155.263 0ZM155.263 0.956977C158.029 0.956977 160.279 3.21125 160.279 5.98132V41.869C160.279 44.6396 158.029 46.8939 155.263 46.8939H5.97164C3.20609 46.8939 0.955472 44.6396 0.955472 41.8691V5.98132C0.955472 3.21125 3.20603 0.957031 5.97164 0.957031H155.263" fill="black"/>
<path d="M56.633 12.2536C56.633 13.2559 56.3367 14.054 55.7433 14.6494C55.0691 15.3573 54.1906 15.7116 53.1105 15.7116C52.0763 15.7116 51.1969 15.3527 50.4737 14.6339C49.7493 13.9157 49.3877 13.0251 49.3877 11.9625C49.3877 10.8994 49.7493 10.0093 50.4737 9.29046C51.1969 8.57229 52.0763 8.21289 53.1105 8.21289C53.6238 8.21289 54.1151 8.31343 54.5816 8.51391C55.0481 8.71487 55.4223 8.98164 55.7022 9.31573L55.0724 9.94701C54.5979 9.37927 53.9448 9.09562 53.1105 9.09562C52.3563 9.09562 51.704 9.3611 51.1535 9.89239C50.6029 10.4242 50.3277 11.1139 50.3277 11.9625C50.3277 12.8111 50.6029 13.5007 51.1535 14.0326C51.704 14.5639 52.3562 14.8293 53.1105 14.8293C53.9108 14.8293 54.5779 14.5624 55.112 14.0279C55.4587 13.6797 55.6592 13.1957 55.7129 12.5741H53.1105V11.712H56.583C56.6166 11.8995 56.6329 12.0793 56.6329 12.2536" fill="black"/>
<path d="M56.5148 12.3318V12.7539H56.6342H56.7279C56.7426 12.6171 56.7509 12.4764 56.753 12.3318H56.6342H56.5842H56.5148ZM56.5148 12.3318H56.5141C56.5145 12.3061 56.5147 12.2802 56.5148 12.2541V12.3318ZM55.8755 14.6865C55.8898 14.6716 55.9039 14.6566 55.9178 14.6414C56.0026 14.549 56.0809 14.4522 56.1527 14.351L56.0983 14.2964L55.7675 14.6265M55.8755 14.6865L55.74 14.6459L55.7441 14.6499L55.7441 14.6499L55.7443 14.6497M55.8755 14.6865L55.8749 14.6862L55.7675 14.6265M55.7675 14.6265L55.7669 14.6261L55.762 14.6234L55.7612 14.6243L55.7406 14.6453L55.7404 14.6455L55.7402 14.6457L55.7443 14.6497M55.7675 14.6265L55.7667 14.6273L55.7447 14.6493L55.7445 14.6495L55.7444 14.6496L55.7443 14.6497M55.7443 14.6497L55.7511 14.6565M49.5083 11.9625C49.5097 10.9266 49.8568 10.0743 50.5588 9.37629L53.1117 8.09351C53.1117 8.09351 53.1117 8.09351 53.1117 8.09351C53.1116 8.09351 53.1115 8.09351 53.1113 8.09351C52.0497 8.09269 51.1336 8.4665 50.3905 9.20618C50.3904 9.20624 50.3904 9.2063 50.3903 9.20635C50.3902 9.20643 50.3902 9.20651 50.3901 9.20659C49.6445 9.94478 49.2686 10.8726 49.2695 11.9624C49.2695 11.9625 49.2695 11.9626 49.2695 11.9627C49.2695 11.9628 49.2695 11.9629 49.2695 11.963C49.2686 13.0522 49.6444 13.9804 50.3903 14.719C50.3904 14.7191 50.3905 14.7192 50.3906 14.7194C50.3907 14.7195 50.3908 14.7196 50.391 14.7197C51.1336 15.4589 52.0497 15.8323 53.1113 15.8314C53.1115 15.8314 53.1116 15.8314 53.1117 15.8314C53.1118 15.8314 53.1119 15.8314 53.112 15.8314C54.031 15.8322 54.8197 15.5782 55.4595 15.072L55.3905 15.0028L55.7296 14.6565L55.667 14.5766L55.6575 14.5676C55.005 15.2507 54.1663 15.5907 53.1119 15.5922C53.1119 15.5922 53.1118 15.5922 53.1117 15.5922C53.1116 15.5922 53.1116 15.5922 53.1115 15.5922C52.1053 15.5907 51.263 15.247 50.5596 14.5503C50.5594 14.5502 50.5592 14.55 50.5591 14.5499C50.559 14.5498 50.5589 14.5497 50.5588 14.5496C49.8568 13.8511 49.5097 12.9983 49.5083 11.9629C49.5083 11.9629 49.5083 11.9628 49.5083 11.9627C49.5083 11.9626 49.5083 11.9626 49.5083 11.9625ZM55.6942 14.8686C55.7327 14.8322 55.7705 14.7948 55.8077 14.7563L55.8073 14.7557L55.7333 14.6612L55.3987 15.0108L55.4612 15.0706C55.5412 15.0073 55.6189 14.9399 55.6942 14.8686ZM55.8135 14.7504C55.8186 14.745 55.8238 14.7397 55.8289 14.7343C55.8291 14.7341 55.8293 14.7339 55.8294 14.7337C55.8299 14.7333 55.8303 14.7328 55.8307 14.7324L55.8307 14.7324L55.8294 14.7337L55.8289 14.7343L55.8135 14.7504Z" fill="white" stroke="black"/>
<mask id="path-5-inside-1_2000_13479" fill="white">
<path d="M62.1386 9.2556V9.13597H58.7558V11.651H61.6987V12.2739L58.7558 12.2742V14.7892H62.0192V15.4318H58.0747V8.49346H62.0192V9.2556H62.1386H62.258V8.25421H57.8358V15.671H62.258V14.55H58.9946V12.5135H61.9376V11.4118H58.9946V9.37522H62.258V9.2556H62.1386ZM66.0216 15.5514H65.1002V9.25554H63.0987V8.37378H68.023V9.25554H66.0216V15.5514Z"/>
</mask>
<path d="M62.1386 9.2556V9.13597H58.7558V11.651H61.6987V12.2739L58.7558 12.2742V14.7892H62.0192V15.4318H58.0747V8.49346H62.0192V9.2556H62.1386H62.258V8.25421H57.8358V15.671H62.258V14.55H58.9946V12.5135H61.9376V11.4118H58.9946V9.37522H62.258V9.2556H62.1386ZM66.0216 15.5514H65.1002V9.25554H63.0987V8.37378H68.023V9.25554H66.0216V15.5514Z" fill="black"/>
<path d="M62.1386 9.7556H62.258V8.7556H62.1386V9.7556ZM62.1386 9.2556V10.2556H63.1386V9.2556H62.1386ZM62.1386 9.13597H63.1386V8.13597H62.1386V9.13597ZM58.7558 9.13597V8.13597H57.7558V9.13597H58.7558ZM58.7558 11.651H57.7558V12.651H58.7558V11.651ZM61.6987 11.651H62.6987V10.651H61.6987V11.651ZM61.6987 12.2739L61.6988 13.2739L62.6987 13.2738V12.2739H61.6987ZM58.7558 12.2742L58.7556 11.2742L57.7558 11.2743V12.2742H58.7558ZM58.7558 14.7892H57.7558V15.7892H58.7558V14.7892ZM62.0192 14.7892H63.0192V13.7892H62.0192V14.7892ZM62.0192 15.4318V16.4318H63.0192V15.4318H62.0192ZM58.0747 15.4318H57.0747V16.4318H58.0747V15.4318ZM58.0747 8.49346V7.49346H57.0747V8.49346H58.0747ZM62.0192 8.49346H63.0192V7.49346H62.0192V8.49346ZM62.0192 9.2556H61.0192V10.2556H62.0192V9.2556ZM62.258 8.25421H63.258V7.25421H62.258V8.25421ZM57.8358 8.25421V7.25421H56.8358V8.25421H57.8358ZM57.8358 15.671H56.8358V16.671H57.8358V15.671ZM62.258 15.671V16.671H63.258V15.671H62.258ZM62.258 14.55H63.258V13.55H62.258V14.55ZM58.9946 14.55H57.9946V15.55H58.9946V14.55ZM58.9946 12.5135V11.5135H57.9946V12.5135H58.9946ZM61.9376 12.5135V13.5135H62.9376V12.5135H61.9376ZM61.9376 11.4118H62.9376V10.4118H61.9376V11.4118ZM58.9946 11.4118H57.9946V12.4118H58.9946V11.4118ZM58.9946 9.37522V8.37522H57.9946V9.37522H58.9946ZM62.258 9.37522V10.3752H63.258V9.37522H62.258ZM66.0216 15.5514V16.5514H67.0216V15.5514H66.0216ZM65.1002 15.5514H64.1002V16.5514H65.1002V15.5514ZM65.1002 9.25554H66.1002V8.25554H65.1002V9.25554ZM63.0987 9.25554H62.0987V10.2555H63.0987V9.25554ZM63.0987 8.37378V7.37378H62.0987V8.37378H63.0987ZM68.023 8.37378H69.023V7.37378H68.023V8.37378ZM68.023 9.25554V10.2555H69.023V9.25554H68.023ZM66.0216 9.25554V8.25554H65.0216V9.25554H66.0216ZM63.1386 9.2556V9.13597H61.1386V9.2556H63.1386ZM62.1386 8.13597H58.7558V10.136H62.1386V8.13597ZM57.7558 9.13597V11.651H59.7558V9.13597H57.7558ZM58.7558 12.651H61.6987V10.651H58.7558V12.651ZM60.6987 11.651V12.2739H62.6987V11.651H60.6987ZM61.6986 11.2739L58.7556 11.2742L58.7559 13.2742L61.6988 13.2739L61.6986 11.2739ZM57.7558 12.2742V14.7892H59.7558V12.2742H57.7558ZM58.7558 15.7892H62.0192V13.7892H58.7558V15.7892ZM61.0192 14.7892V15.4318H63.0192V14.7892H61.0192ZM62.0192 14.4318H58.0747V16.4318H62.0192V14.4318ZM59.0747 15.4318V8.49346H57.0747V15.4318H59.0747ZM58.0747 9.49346H62.0192V7.49346H58.0747V9.49346ZM61.0192 8.49346V9.2556H63.0192V8.49346H61.0192ZM62.0192 10.2556H62.1386V8.2556H62.0192V10.2556ZM63.258 9.2556V8.25421H61.258V9.2556H63.258ZM62.258 7.25421H57.8358V9.25421H62.258V7.25421ZM56.8358 8.25421V15.671H58.8358V8.25421H56.8358ZM57.8358 16.671H62.258V14.671H57.8358V16.671ZM63.258 15.671V14.55H61.258V15.671H63.258ZM62.258 13.55H58.9946V15.55H62.258V13.55ZM59.9946 14.55V12.5135H57.9946V14.55H59.9946ZM58.9946 13.5135H61.9376V11.5135H58.9946V13.5135ZM62.9376 12.5135V11.4118H60.9376V12.5135H62.9376ZM61.9376 10.4118H58.9946V12.4118H61.9376V10.4118ZM59.9946 11.4118V9.37522H57.9946V11.4118H59.9946ZM58.9946 10.3752H62.258V8.37522H58.9946V10.3752ZM63.258 9.37522V9.2556H61.258V9.37522H63.258ZM66.0216 14.5514H65.1002V16.5514H66.0216V14.5514ZM66.1002 15.5514V9.25554H64.1002V15.5514H66.1002ZM65.1002 8.25554H63.0987V10.2555H65.1002V8.25554ZM64.0987 9.25554V8.37378H62.0987V9.25554H64.0987ZM63.0987 9.37378H68.023V7.37378H63.0987V9.37378ZM67.023 8.37378V9.25554H69.023V8.37378H67.023ZM68.023 8.25554H66.0216V10.2555H68.023V8.25554ZM65.0216 9.25554V15.5514H67.0216V9.25554H65.0216Z" fill="black" mask="url(#path-5-inside-1_2000_13479)"/>
<path d="M66.0208 15.5514V15.4317H65.2188V9.13591H63.2174V8.49345H67.9028V9.13591H65.9014V15.5513H66.0208H66.1402V9.37516H68.1417V8.25415H62.9785V9.3751H64.9799V15.6709H66.1402V15.5513H66.0208M71.5852 15.5514V8.37372H72.5057V15.5513H71.5852" fill="black"/>
<path d="M71.5862 15.5514H71.7057V8.49346H72.3872V15.4318H71.5862V15.5514V15.671H72.6261V8.25421H71.4668V15.671H71.5862V15.5514M76.5911 15.5514H75.6698V9.25554H73.6684V8.37378H78.5926V9.25554H76.5911V15.5513" fill="black"/>
<path d="M76.591 15.5513V15.4316H75.789V9.13584H73.7877V8.49337H78.473V9.13584H76.4716V15.5512H76.591H76.7105V9.37508H78.7119V8.25407H73.5488V9.37503H75.5501V15.6708H76.7105V15.5512H76.591M83.3399 14.0228C83.8703 14.5606 84.5193 14.8293 85.2868 14.8293C86.0543 14.8293 86.7036 14.5606 87.2332 14.0228C87.7641 13.485 88.03 12.7975 88.03 11.9625C88.03 11.1275 87.7641 10.44 87.2332 9.90217C86.7036 9.36433 86.0543 9.09562 85.2868 9.09562C84.5193 9.09562 83.8703 9.36433 83.3399 9.90217C82.8104 10.44 82.5445 11.1275 82.5445 11.9625C82.5445 12.7975 82.8104 13.485 83.3399 14.0228ZM87.9143 14.6237C87.2098 15.3493 86.3337 15.7116 85.2868 15.7116C84.2389 15.7116 83.3632 15.3493 82.6602 14.6237C81.9552 13.8988 81.6044 13.0116 81.6044 11.9625C81.6044 10.9133 81.9552 10.0259 82.6602 9.30126C83.3632 8.57547 84.2389 8.21289 85.2868 8.21289C86.3281 8.21289 87.2019 8.5774 87.9097 9.30594C88.6164 10.0344 88.9701 10.9199 88.9701 11.9625C88.9701 13.0116 88.6173 13.8988 87.9143 14.6237Z" fill="black"/>
<path d="M83.3392 14.0229L83.2542 14.107C83.8043 14.6664 84.4906 14.9505 85.286 14.9491C86.081 14.9505 86.7682 14.6664 87.3173 14.107C87.8711 13.5471 88.1495 12.8228 88.1487 11.9626C88.1495 11.1024 87.8711 10.378 87.3173 9.81815C86.7682 9.2588 86.081 8.97472 85.286 8.97612C84.4906 8.97472 83.8043 9.2588 83.2542 9.81815C82.7019 10.378 82.4228 11.1024 82.4243 11.9626C82.4228 12.8228 82.7019 13.5471 83.2542 14.107L83.3392 14.0229L83.4241 13.9388C82.9175 13.4224 82.6641 12.7728 82.6632 11.9626C82.6641 11.1524 82.9175 10.5028 83.4241 9.98637C83.9354 9.47009 84.546 9.21681 85.286 9.21542C86.0254 9.21681 86.6375 9.47009 87.1475 9.98637C87.6551 10.5028 87.9084 11.1524 87.9093 11.9626C87.9084 12.7728 87.6551 13.4224 87.1475 13.9388C86.6375 14.4551 86.0255 14.7084 85.286 14.7098C84.546 14.7084 83.9354 14.4551 83.4241 13.9388L83.3392 14.0229ZM87.9135 14.6238L87.8282 14.5407C87.1433 15.2435 86.3059 15.5907 85.286 15.5921C84.2657 15.5906 83.4283 15.2435 82.7447 14.5407C82.0613 13.8355 81.7241 12.985 81.7231 11.9626C81.7241 10.9401 82.0613 10.0897 82.7447 9.38455C83.4283 8.68171 84.2657 8.33408 85.286 8.33269C86.2993 8.33408 87.1348 8.68316 87.8235 9.38966C88.5093 10.0981 88.8485 10.9472 88.8499 11.9626C88.8485 12.985 88.5102 13.8355 87.8282 14.5407L87.9135 14.6238L87.9994 14.7069C88.7234 13.9621 89.0896 13.0383 89.0888 11.9626C89.0896 10.893 88.722 9.97105 87.9947 9.22294C87.2669 8.47188 86.3553 8.0921 85.286 8.09339C84.2112 8.0921 83.2968 8.4701 82.5736 9.21827V9.21773C81.8482 9.96304 81.4833 10.8869 81.4843 11.9626C81.4833 13.0383 81.8482 13.9621 82.5736 14.7074L82.5768 14.7108L82.5736 14.7069C83.2968 15.4551 84.2112 15.8323 85.286 15.8313C86.3604 15.8323 87.2748 15.4551 87.9994 14.7069L87.9135 14.6238ZM90.2616 15.5514V8.37376H91.3822L94.8649 13.9574H94.9046L94.8649 12.5742V8.37376H95.7863V15.5513H94.8252L91.1816 9.69708H91.1419L91.1816 11.0808V15.5513H90.2616" fill="black"/>
<path d="M90.262 15.5514H90.3815V8.49339H91.3164L94.799 14.077H95.0276L94.9847 12.5724V8.49345H95.6673V15.4317H94.8919L91.2483 9.57747H91.0197L91.0626 11.0827V15.4317H90.2621V15.5513V15.6709H91.3014V11.0789L91.2618 9.69386L91.1424 9.69709V9.81671H91.182V9.69709L91.0807 9.76069L94.7594 15.6709H95.9062V8.25415H94.7459V12.5756L94.7855 13.9606L94.905 13.9574V13.8378H94.8653V13.9574L94.9666 13.8939L91.4488 8.25415H90.1426V15.6709H90.2621V15.5513M127.717 35.8877H129.945V20.9331H127.717L127.717 35.8877ZM147.79 26.3201L145.235 32.8037H145.159L142.507 26.32H140.107L144.083 35.3821L141.816 40.4228H144.141L150.268 26.32L147.79 26.3201ZM135.152 34.1892C134.421 34.1892 133.403 33.8237 133.403 32.9191C133.403 31.7648 134.671 31.3223 135.765 31.3223C136.746 31.3223 137.206 31.534 137.802 31.8229C137.629 33.2079 136.438 34.1892 135.152 34.1892ZM135.42 25.9929C133.807 25.9929 132.136 26.705 131.444 28.2827L133.422 29.1097C133.845 28.2827 134.632 28.013 135.459 28.013C136.611 28.013 137.783 28.706 137.802 29.9373V30.0911C137.398 29.8602 136.535 29.5139 135.478 29.5139C133.346 29.5139 131.174 30.6873 131.174 32.8807C131.174 34.8817 132.923 36.1709 134.882 36.1709C136.381 36.1709 137.206 35.4975 137.725 34.7088H137.802V35.863H139.953V30.1293C139.953 27.4747 137.975 25.9929 135.42 25.9929ZM121.647 28.1405H118.478V23.0144H121.647C123.313 23.0144 124.259 24.3961 124.259 25.5774C124.259 26.7363 123.313 28.1405 121.647 28.1405ZM121.59 20.9331H116.25V35.8877H118.478V30.2219H121.59C124.06 30.2219 126.488 28.4307 126.488 25.5774C126.488 22.7242 124.06 20.9331 121.59 20.9331ZM92.4711 34.1919C90.9314 34.1919 89.6424 32.9008 89.6424 31.1275C89.6424 29.3355 90.9314 28.0247 92.4711 28.0247C93.9911 28.0247 95.184 29.3354 95.184 31.1275C95.184 32.9008 93.991 34.1919 92.4711 34.1919ZM95.03 27.1575H94.953C94.4529 26.5602 93.4904 26.0205 92.2784 26.0205C89.7386 26.0205 87.4106 28.256 87.4106 31.1275C87.4106 33.9798 89.7385 36.1962 92.2784 36.1962C93.4904 36.1962 94.4529 35.6564 94.953 35.04H95.03V35.7723C95.03 37.7191 93.9911 38.7597 92.3171 38.7597C90.951 38.7597 90.1044 37.7765 89.7576 36.948L87.8147 37.7574C88.3726 39.1064 89.8543 40.7639 92.3171 40.7639C94.9339 40.7639 97.1466 39.2218 97.1466 35.4639V26.3289H95.03V27.1575ZM98.6858 35.8877H100.918V20.9325H98.6858V35.8877ZM104.208 30.9541C104.15 28.9882 105.728 27.9863 106.863 27.9863C107.749 27.9863 108.499 28.4293 108.749 29.0659L104.208 30.9541ZM111.135 29.2583C110.712 28.1209 109.422 26.0205 106.786 26.0205C104.169 26.0205 101.995 28.0826 101.995 31.1083C101.995 33.9607 104.15 36.1962 107.036 36.1962C109.365 36.1962 110.712 34.7699 111.27 33.9414L109.538 32.7849C108.961 33.633 108.172 34.1919 107.036 34.1919C105.901 34.1919 105.093 33.6714 104.573 32.6503L111.365 29.8363L111.135 29.2583ZM57.022 27.5816V29.7401H62.1785C62.0246 30.9541 61.6205 31.8406 61.0047 32.4573C60.2545 33.2092 59.0808 34.0377 57.0219 34.0377C53.8471 34.0377 51.3652 31.4746 51.3652 28.2947C51.3652 25.1148 53.8471 22.5514 57.022 22.5514C58.7346 22.5514 59.9849 23.2261 60.9086 24.0933L62.4286 22.571C61.1396 21.3373 59.4269 20.393 57.022 20.393C52.6733 20.393 49.0176 23.9392 49.0176 28.2947C49.0176 32.6503 52.6733 36.1962 57.022 36.1962C59.3695 36.1962 61.1396 35.4256 62.5247 33.9798C63.9486 32.5536 64.3914 30.5495 64.3914 28.9308C64.3914 28.4293 64.353 27.9672 64.2756 27.5816H57.022ZM70.2538 34.1919C68.7142 34.1919 67.3865 32.9199 67.3865 31.1083C67.3865 29.2774 68.7142 28.0247 70.2538 28.0247C71.7928 28.0247 73.1206 29.2774 73.1206 31.1083C73.1206 32.92 71.7928 34.1919 70.2538 34.1919ZM70.2538 26.0205C67.4443 26.0205 65.1545 28.1596 65.1545 31.1083C65.1545 34.0377 67.4443 36.1962 70.2538 36.1962C73.0628 36.1962 75.3525 34.0377 75.3525 31.1083C75.3525 28.1596 73.0628 26.0205 70.2538 26.0205ZM81.3768 34.1919C79.8378 34.1919 78.5099 32.9199 78.5099 31.1083C78.5099 29.2774 79.8378 28.0247 81.3768 28.0247C82.916 28.0247 84.2437 29.2774 84.2437 31.1083C84.2437 32.92 82.9159 34.1919 81.3768 34.1919ZM81.3768 26.0205C78.5674 26.0205 76.2781 28.1596 76.2781 31.1083C76.2781 34.0377 78.5674 36.1962 81.3768 36.1962C84.1859 36.1962 86.4757 34.0377 86.4757 31.1083C86.4757 28.1596 84.1858 26.0205 81.3768 26.0205Z" fill="black"/>
<path d="M12.5502 9.10506C12.1494 9.46726 11.9102 10.0714 11.9102 10.8733V10.692V37.1546V36.9803C11.9102 37.7209 12.1154 38.2928 12.4629 38.6611L12.5516 38.7462V38.7466C12.8329 39.0008 13.1936 39.1358 13.607 39.1354C14.0109 39.1354 14.4653 39.0064 14.945 38.734L32.2809 28.8681L38.2356 25.4789C38.9919 25.0486 39.4165 24.4934 39.4874 23.9279V23.9256C39.4165 23.3589 38.9919 22.8041 38.2357 22.3738L32.2804 18.9849L14.945 9.11904C14.4644 8.8462 14.0096 8.71674 13.6046 8.71674C13.1917 8.71674 12.8315 8.8513 12.5503 9.10506H12.5502Z" fill="#00C1FF"/>
<path d="M12.5517 38.7462L12.4629 38.6612C12.1154 38.2929 11.9102 37.7209 11.9102 36.9803V37.1546V10.6986V10.8733C11.9102 10.0714 12.1494 9.46729 12.5502 9.10509L27.3477 23.9261L12.5517 38.7462Z" fill="url(#paint0_linear_2000_13479)"/>
<path d="M32.2806 28.8682L27.3474 23.9262L32.2801 18.9851L38.2354 22.3738C38.9916 22.8043 39.4162 23.3589 39.4871 23.9258V23.928C39.4162 24.4935 38.9916 25.0487 38.2354 25.479L32.2806 28.8682" fill="url(#paint1_linear_2000_13479)"/>
<path d="M13.6071 39.1354C13.1938 39.1358 12.8331 39.0008 12.5519 38.7466V38.7462L27.3479 23.9261L32.2811 28.8681L14.9451 38.734C14.4655 39.0065 14.0111 39.1354 13.6071 39.1354Z" fill="url(#paint2_linear_2000_13479)"/>
<path d="M27.3483 23.9263L12.5508 9.10522C12.8321 8.85146 13.1923 8.7169 13.6051 8.7169C14.0101 8.7169 14.465 8.8463 14.9455 9.1192L32.281 18.9851L27.3483 23.9263" fill="url(#paint3_linear_2000_13479)"/>
<path d="M13.6083 39.3108C13.195 39.3108 12.8338 39.1757 12.5525 38.9215L12.552 38.922C12.5509 38.9208 12.5496 38.9197 12.5483 38.9188L12.4714 38.8435C12.469 38.8411 12.4667 38.8384 12.4639 38.8356L12.5526 38.7468C12.8339 39.001 13.1945 39.136 13.6079 39.1355C14.0118 39.1355 14.4663 39.0066 14.9459 38.7342L32.2818 28.8683L32.3929 28.9796L32.2804 29.0436L14.9458 38.9089C14.5087 39.1571 14.093 39.2865 13.7175 39.308C13.6811 39.3098 13.6447 39.3108 13.6083 39.3108Z" fill="url(#paint4_linear_2000_13479)"/>
<path d="M12.4629 38.8353C12.1154 38.4671 11.9102 37.8956 11.9102 37.1545V36.9802C11.9102 37.7208 12.1154 38.2927 12.4629 38.661L12.5516 38.7461L12.4629 38.8353Z" fill="url(#paint5_linear_2000_13479)"/>
<path d="M32.3923 28.9792L32.2812 28.8679L38.236 25.4787C38.9923 25.0484 39.4169 24.4932 39.4878 23.9278C39.4878 24.1353 39.4416 24.3427 39.3498 24.5447C39.1645 24.9517 38.7932 25.3362 38.2361 25.6535L32.3923 28.9792" fill="url(#paint6_linear_2000_13479)"/>
<path d="M39.4883 23.9258C39.4173 23.359 38.9928 22.8043 38.2365 22.3739L32.2812 18.9851L32.3923 18.8738H32.3928L38.2365 22.1996C39.0703 22.6743 39.4878 23.3 39.4883 23.9258Z" fill="url(#paint7_linear_2000_13479)"/>
<path d="M11.9102 10.8734V10.6906C11.9102 10.6247 11.9119 10.5602 11.9153 10.4977V10.4948C11.9153 10.494 11.9153 10.493 11.9156 10.4921V10.485C11.9516 9.84714 12.1494 9.34956 12.4629 9.01731L12.5502 9.1051C12.1494 9.46736 11.9102 10.0715 11.9102 10.8734Z" fill="url(#paint8_linear_2000_13479)"/>
<path d="M32.2813 18.9851L14.9459 9.11911C14.4653 8.84626 14.0105 8.71685 13.6055 8.71685C13.1926 8.71685 12.8324 8.85142 12.5512 9.10518L12.4639 9.01733C12.4911 8.98842 12.5195 8.96053 12.5488 8.93373C12.5497 8.93277 12.5512 8.9318 12.5521 8.93088C12.8311 8.67906 13.1875 8.54449 13.5967 8.54207H13.6055C14.0105 8.54207 14.4653 8.67153 14.9459 8.94448L32.3929 18.8734L32.3924 18.8738L32.2813 18.9851Z" fill="url(#paint9_linear_2000_13479)"/>
<rect x="57.9912" y="8.38416" width="4.19209" height="0.873352" fill="black"/>
<rect x="57.9912" y="11.5281" width="3.66808" height="0.698682" fill="black"/>
<rect x="57.9912" y="14.6723" width="4.01742" height="0.873352" fill="black"/>
<rect x="57.9912" y="8.55884" width="0.873352" height="6.28813" fill="black"/>
<defs>
<linearGradient id="paint0_linear_2000_13479" x1="21.3667" y1="10.419" x2="8.61452" y2="23.1916" gradientUnits="userSpaceOnUse">
<stop stop-color="#00A0FF"/>
<stop offset="0.00657" stop-color="#00A1FF"/>
<stop offset="0.2601" stop-color="#00BEFF"/>
<stop offset="0.5122" stop-color="#00D2FF"/>
<stop offset="0.7604" stop-color="#00DFFF"/>
<stop offset="1" stop-color="#00E3FF"/>
</linearGradient>
<linearGradient id="paint1_linear_2000_13479" x1="40.4086" y1="23.8408" x2="11.5094" y2="23.8408" gradientUnits="userSpaceOnUse">
<stop stop-color="#FFE000"/>
<stop offset="0.4087" stop-color="#FFBD00"/>
<stop offset="0.7754" stop-color="#FFA500"/>
<stop offset="1" stop-color="#FF9C00"/>
</linearGradient>
<linearGradient id="paint2_linear_2000_13479" x1="29.662" y1="28.6248" x2="8.05258" y2="50.1109" gradientUnits="userSpaceOnUse">
<stop stop-color="#FF3A44"/>
<stop offset="1" stop-color="#C31162"/>
</linearGradient>
<linearGradient id="paint3_linear_2000_13479" x1="8.73704" y1="6.90793" x2="18.3679" y2="16.4986" gradientUnits="userSpaceOnUse">
<stop stop-color="#32A071"/>
<stop offset="0.0685" stop-color="#2DA771"/>
<stop offset="0.4762" stop-color="#15CF74"/>
<stop offset="0.8009" stop-color="#06E775"/>
<stop offset="1" stop-color="#00F076"/>
</linearGradient>
<linearGradient id="paint4_linear_2000_13479" x1="29.652" y1="32.053" x2="12.3461" y2="49.3869" gradientUnits="userSpaceOnUse">
<stop stop-color="#CC2E36"/>
<stop offset="1" stop-color="#9C0E4E"/>
</linearGradient>
<linearGradient id="paint5_linear_2000_13479" x1="13.8814" y1="10.4188" x2="2.64696" y2="21.6716" gradientUnits="userSpaceOnUse">
<stop stop-color="#008DE0"/>
<stop offset="0.00657" stop-color="#008DE0"/>
<stop offset="0.2601" stop-color="#00A7E0"/>
<stop offset="0.5122" stop-color="#00B8E0"/>
<stop offset="0.7604" stop-color="#00C4E0"/>
<stop offset="1" stop-color="#00C7E0"/>
</linearGradient>
<linearGradient id="paint6_linear_2000_13479" x1="40.4093" y1="23.9267" x2="11.5101" y2="23.9267" gradientUnits="userSpaceOnUse">
<stop stop-color="#E0C500"/>
<stop offset="0.4087" stop-color="#E0A600"/>
<stop offset="0.7754" stop-color="#E09100"/>
<stop offset="1" stop-color="#E08900"/>
</linearGradient>
<linearGradient id="paint7_linear_2000_13479" x1="40.4097" y1="23.927" x2="11.5106" y2="23.927" gradientUnits="userSpaceOnUse">
<stop stop-color="#FFE840"/>
<stop offset="0.4087" stop-color="#FFCE40"/>
<stop offset="0.7754" stop-color="#FFBC40"/>
<stop offset="1" stop-color="#FFB540"/>
</linearGradient>
<linearGradient id="paint8_linear_2000_13479" x1="13.8692" y1="10.4394" x2="3.04846" y2="20.8081" gradientUnits="userSpaceOnUse">
<stop stop-color="#40B8FF"/>
<stop offset="0.00657" stop-color="#40B9FF"/>
<stop offset="0.2601" stop-color="#40CEFF"/>
<stop offset="0.5122" stop-color="#40DDFF"/>
<stop offset="0.7604" stop-color="#40E7FF"/>
<stop offset="1" stop-color="#40EAFF"/>
</linearGradient>
<linearGradient id="paint9_linear_2000_13479" x1="8.71582" y1="10.0423" x2="16.4437" y2="17.7827" gradientUnits="userSpaceOnUse">
<stop stop-color="#65B895"/>
<stop offset="0.0685" stop-color="#62BD95"/>
<stop offset="0.4762" stop-color="#50DB97"/>
<stop offset="0.8009" stop-color="#44ED98"/>
<stop offset="1" stop-color="#40F498"/>
</linearGradient>
</defs>
</svg>
