<svg width="32" height="40" viewBox="0 0 32 40" fill="none" xmlns="http://www.w3.org/2000/svg">
<g id="noun-receipt-1209675 1">
<path id="Vector" d="M26.4001 2.56C26.3041 2.56 26.2401 2.56 26.1441 2.56C26.1121 2.56 26.1121 2.56 26.0801 2.56H9.12008C7.45608 2.56 6.08008 3.936 6.08008 5.6V16.736C6.08008 16.928 6.20808 17.056 6.40008 17.056C6.59208 17.056 6.72008 16.928 6.72008 16.736V5.6C6.72008 4.288 7.80808 3.2 9.12008 3.2H24.5441C23.8401 3.744 23.3601 4.64 23.3601 5.6V26.144L22.2401 27.648L21.0561 26.08C20.9281 25.92 20.6721 25.92 20.5441 26.08L19.3601 27.648L18.1761 26.08C18.0481 25.92 17.7921 25.92 17.6641 26.08L16.4801 27.648L15.2961 26.08C15.1681 25.92 14.9121 25.92 14.7841 26.08L13.6001 27.648L12.4161 26.08C12.2881 25.92 12.0321 25.92 11.9041 26.08L10.7201 27.648L9.53608 26.08C9.47208 25.952 9.37608 25.92 9.28008 25.92C9.18408 25.92 9.08808 25.952 9.02408 26.048L7.84008 27.616L6.72008 26.144V20.32C6.72008 20.128 6.59208 20 6.40008 20C6.20808 20 6.08008 20.128 6.08008 20.32V26.24V26.272C6.08008 26.304 6.08008 26.304 6.08008 26.336C6.08008 26.368 6.11208 26.368 6.11208 26.4C6.11208 26.4 6.11208 26.432 6.14408 26.432L7.58408 28.352C7.64808 28.448 7.74408 28.48 7.84008 28.48C7.93608 28.48 8.03208 28.448 8.09608 28.352L9.28008 26.784L10.4641 28.352C10.5281 28.448 10.6241 28.48 10.7201 28.48C10.8161 28.48 10.9121 28.448 10.9761 28.352L12.1601 26.784L13.3441 28.352C13.4721 28.512 13.7281 28.512 13.8561 28.352L15.0401 26.784L16.2241 28.352C16.3521 28.512 16.6081 28.512 16.7361 28.352L17.9201 26.784L19.1041 28.352C19.1681 28.448 19.2641 28.48 19.3601 28.48C19.4561 28.48 19.5521 28.448 19.6161 28.352L20.8001 26.784L21.9841 28.352C22.0481 28.448 22.1441 28.48 22.2401 28.48C22.3361 28.48 22.4321 28.448 22.4961 28.352L23.9361 26.432V26.4C23.9361 26.368 23.9681 26.368 23.9681 26.336C23.9681 26.304 23.9681 26.304 23.9681 26.272V26.24V7.04H29.0881C29.2801 7.04 29.4081 6.912 29.4081 6.72C29.4401 3.296 27.7761 2.56 26.4001 2.56ZM24.0001 6.4V5.6C24.0001 4.288 25.0881 3.2 26.4001 3.2C27.9041 3.2 28.7361 4.288 28.8001 6.4H24.0001Z" fill="#22A699"/>
<path id="Vector_2" d="M11.5202 7.03999H18.5602C18.7522 7.03999 18.8802 6.91199 18.8802 6.71999C18.8802 6.52799 18.7522 6.39999 18.5602 6.39999H11.5202C11.3282 6.39999 11.2002 6.52799 11.2002 6.71999C11.2002 6.91199 11.3282 7.03999 11.5202 7.03999Z" fill="#22A699"/>
<path id="Vector_3" d="M11.5202 10.24H18.5602C18.7522 10.24 18.8802 10.112 18.8802 9.92001C18.8802 9.72801 18.7522 9.60001 18.5602 9.60001H11.5202C11.3282 9.60001 11.2002 9.72801 11.2002 9.92001C11.2002 10.112 11.3282 10.24 11.5202 10.24Z" fill="#22A699"/>
<path id="Vector_4" d="M15.5202 14.848C16.5442 14.848 17.3762 15.232 17.3762 15.744C17.3762 15.936 17.5042 16.064 17.6962 16.064C17.8882 16.064 18.0162 15.936 18.0162 15.744C18.0162 14.944 17.1842 14.336 15.9682 14.24V13.12C15.9682 12.928 15.8402 12.8 15.6482 12.8C15.4562 12.8 15.3282 12.928 15.3282 13.12V14.24C14.0482 14.336 13.0562 15.264 13.0562 16.416C13.0562 17.6 14.1762 18.592 15.5522 18.592C16.5762 18.592 17.4082 19.264 17.4082 20.128C17.4082 20.992 16.5762 21.664 15.5522 21.664C14.4962 21.664 13.7602 20.96 13.6962 20.768C13.6962 20.608 13.5362 20.448 13.3762 20.448C13.1842 20.448 13.0562 20.576 13.0562 20.768C13.0562 21.376 14.1442 22.208 15.3282 22.304C15.3282 22.336 15.2962 22.368 15.2962 22.4V23.36C15.2962 23.552 15.4242 23.68 15.6162 23.68C15.8082 23.68 15.9362 23.552 15.9362 23.36V22.368C15.9362 22.336 15.9362 22.272 15.9042 22.24C17.0882 22.08 17.9842 21.184 17.9842 20.096C17.9842 18.912 16.8642 17.92 15.4882 17.92C14.4642 17.92 13.6322 17.248 13.6322 16.384C13.6322 15.52 14.4962 14.848 15.5202 14.848Z" fill="#22A699"/>
</g>
</svg>
