<svg width="33" height="20" viewBox="0 0 33 20" fill="none" xmlns="http://www.w3.org/2000/svg">
<path d="M18.7168 11.6217C18.8858 11.6217 19.0547 11.5204 19.1898 11.3852L21.3182 8.5136L23.0749 9.83117C23.2101 9.93252 23.3452 9.96631 23.5141 9.93252C23.6493 9.89874 23.7844 9.83117 23.8858 9.69604L26.0141 6.8582L26.5885 7.29739C26.7236 7.39874 26.8925 7.39874 27.0276 7.33117C27.1628 7.2636 27.2641 7.12847 27.2641 6.95955L27.3655 4.62847C27.3655 4.49333 27.2979 4.3582 27.1966 4.25685C27.0952 4.18928 26.9263 4.1555 26.8249 4.18928L24.629 4.93252C24.4939 5.00009 24.3587 5.10144 24.3587 5.27036C24.3249 5.43928 24.3925 5.57441 24.5276 5.67577L25.1358 6.11495L23.3452 8.5136L21.5885 7.19604C21.4533 7.09468 21.3182 7.0609 21.1493 7.09469C21.0141 7.12847 20.879 7.19604 20.7776 7.33117L18.3114 10.642C18.1087 10.8785 18.1763 11.2501 18.4128 11.4528C18.4466 11.5879 18.5817 11.6217 18.7168 11.6217Z" fill="#003087"/>
<path d="M18.5128 15.7432H20.1007C20.3034 15.7432 20.5061 15.5743 20.5061 15.3378V13.108C20.5061 12.9053 20.3372 12.7026 20.1007 12.7026H18.5128C18.3101 12.7026 18.1074 12.8716 18.1074 13.108V15.3378C18.1412 15.5743 18.3101 15.7432 18.5128 15.7432Z" fill="#003087"/>
<path d="M23.6495 11.1487H22.0617C21.859 11.1487 21.6562 11.3176 21.6562 11.5541V15.3717C21.6562 15.5744 21.8252 15.7771 22.0617 15.7771H23.6495C23.8522 15.7771 24.0549 15.6081 24.0549 15.3717V11.5541C24.0549 11.3176 23.886 11.1487 23.6495 11.1487Z" fill="#003087"/>
<path d="M25.6417 9.56085C25.439 9.56085 25.2363 9.72977 25.2363 9.96626V15.3379C25.2363 15.5406 25.4052 15.7433 25.6417 15.7433H27.2296C27.4323 15.7433 27.635 15.5744 27.635 15.3379V9.96626C27.635 9.76356 27.4661 9.56085 27.2296 9.56085H25.6417Z" fill="#003087"/>
<path d="M30.8106 0H14.9322C14.2228 0 13.6484 0.574325 13.6484 1.28378V18.7162C13.6484 19.4257 14.2228 20 14.9322 20H30.8106C31.5201 20 32.0944 19.4257 32.0944 18.7162V1.28378C32.0944 0.574325 31.5201 0 30.8106 0ZM30.1349 18.0405H15.6079V1.95946H30.1349V18.0405Z" fill="#003087"/>
<path d="M10.0338 0.101257H0.97973C0.439189 0.101257 0 0.540446 0 1.08099C0 1.62153 0.439189 2.06072 0.97973 2.06072H10.0338C10.5743 2.06072 11.0135 1.62153 11.0135 1.08099C11.0135 0.540446 10.5743 0.101257 10.0338 0.101257Z" fill="#003087"/>
<path d="M10.0338 4.59457H0.97973C0.439189 4.59457 0 5.03376 0 5.5743C0 6.11484 0.439189 6.55403 0.97973 6.55403H10.0338C10.5743 6.55403 11.0135 6.11484 11.0135 5.5743C11.0135 5.03376 10.5743 4.59457 10.0338 4.59457Z" fill="#003087"/>
<path d="M10.0338 9.08783H0.97973C0.439189 9.08783 0 9.52702 0 10.0676C0 10.6081 0.439189 11.0473 0.97973 11.0473H10.0338C10.5743 11.0473 11.0135 10.6081 11.0135 10.0676C11.0135 9.52702 10.5743 9.08783 10.0338 9.08783Z" fill="#003087"/>
<path d="M10.0338 13.5472H0.97973C0.439189 13.5472 0 13.9864 0 14.5269C0 15.0675 0.439189 15.5067 0.97973 15.5067H10.0338C10.5743 15.5067 11.0135 15.0675 11.0135 14.5269C11.0135 13.9864 10.5743 13.5472 10.0338 13.5472Z" fill="#003087"/>
<path d="M10.0338 18.0405H0.97973C0.439189 18.0405 0 18.4797 0 19.0202C0 19.5607 0.439189 19.9999 0.97973 19.9999H10.0338C10.5743 19.9999 11.0135 19.5607 11.0135 19.0202C11.0135 18.4797 10.5743 18.0405 10.0338 18.0405Z" fill="#003087"/>
</svg>
