<svg width="97" height="60" viewBox="0 0 97 60" fill="none" xmlns="http://www.w3.org/2000/svg">
<path d="M56.5676 34.8651C57.0782 34.8651 57.5887 34.5611 57.9971 34.1557L64.4298 25.5408L69.7393 29.4935C70.1477 29.7976 70.5561 29.8989 71.0667 29.7976C71.4751 29.6962 71.8835 29.4935 72.1898 29.0881L78.6225 20.5746L80.3583 21.8922C80.7667 22.1962 81.2772 22.1962 81.6857 21.9935C82.0941 21.7908 82.4004 21.3854 82.4004 20.8786L82.7067 13.8854C82.7067 13.48 82.5025 13.0746 82.1962 12.7705C81.8899 12.5678 81.3794 12.4665 81.073 12.5678L74.4362 14.7976C74.0277 15.0003 73.6193 15.3043 73.6193 15.8111C73.5172 16.3178 73.7214 16.7232 74.1298 17.0273L75.9677 18.3449L70.5561 25.5408L65.2466 21.5881C64.8382 21.2841 64.4298 21.1827 63.9193 21.2841C63.5108 21.3854 63.1024 21.5881 62.7961 21.9935L55.3424 31.9259C54.7297 32.6354 54.9339 33.7503 55.6487 34.3584C55.7508 34.7638 56.1592 34.8651 56.5676 34.8651Z" fill="#22A699"/>
<path d="M55.9548 47.2295H60.7537C61.3664 47.2295 61.979 46.7228 61.979 46.0133V39.3241C61.979 38.716 61.4685 38.1079 60.7537 38.1079H55.9548C55.3421 38.1079 54.7295 38.6147 54.7295 39.3241V46.0133C54.8316 46.7228 55.3421 47.2295 55.9548 47.2295Z" fill="#22A699"/>
<path d="M71.4744 33.446H66.6755C66.0628 33.446 65.4502 33.9528 65.4502 34.6623V46.115C65.4502 46.7231 65.9607 47.3312 66.6755 47.3312H71.4744C72.0871 47.3312 72.6997 46.8244 72.6997 46.115V34.6623C72.6997 33.9528 72.1892 33.446 71.4744 33.446Z" fill="#22A699"/>
<path d="M77.4975 28.6826C76.8849 28.6826 76.2723 29.1893 76.2723 29.8988V46.0136C76.2723 46.6217 76.7828 47.2299 77.4975 47.2299H82.2965C82.9092 47.2299 83.5218 46.7231 83.5218 46.0136V29.8988C83.5218 29.2907 83.0113 28.6826 82.2965 28.6826H77.4975Z" fill="#22A699"/>
<path d="M93.1197 0H45.13C42.9858 0 41.25 1.72297 41.25 3.85135V56.1487C41.25 58.277 42.9858 60 45.13 60H93.1197C95.264 60 96.9998 58.277 96.9998 56.1487V3.85135C96.9998 1.72297 95.264 0 93.1197 0ZM91.0776 54.1216H47.1721V5.87838H91.0776V54.1216Z" fill="#22A699"/>
<path d="M30.3254 0.303818H2.96107C1.32738 0.303818 0 1.62138 0 3.24301C0 4.86463 1.32738 6.1822 2.96107 6.1822H30.3254C31.9591 6.1822 33.2865 4.86463 33.2865 3.24301C33.2865 1.62138 31.9591 0.303818 30.3254 0.303818Z" fill="#22A699"/>
<path d="M30.3254 13.7838H2.96107C1.32738 13.7838 0 15.1013 0 16.723C0 18.3446 1.32738 19.6622 2.96107 19.6622H30.3254C31.9591 19.6622 33.2865 18.3446 33.2865 16.723C33.2865 15.1013 31.9591 13.7838 30.3254 13.7838Z" fill="#22A699"/>
<path d="M30.3254 27.2635H2.96107C1.32738 27.2635 0 28.5811 0 30.2027C0 31.8243 1.32738 33.1419 2.96107 33.1419H30.3254C31.9591 33.1419 33.2865 31.8243 33.2865 30.2027C33.2865 28.5811 31.9591 27.2635 30.3254 27.2635Z" fill="#22A699"/>
<path d="M30.3254 40.6417H2.96107C1.32738 40.6417 0 41.9593 0 43.5809C0 45.2025 1.32738 46.5201 2.96107 46.5201H30.3254C31.9591 46.5201 33.2865 45.2025 33.2865 43.5809C33.2865 41.9593 31.9591 40.6417 30.3254 40.6417Z" fill="#22A699"/>
<path d="M30.3254 54.1214H2.96107C1.32738 54.1214 0 55.439 0 57.0606C0 58.6822 1.32738 59.9998 2.96107 59.9998H30.3254C31.9591 59.9998 33.2865 58.6822 33.2865 57.0606C33.2865 55.439 31.9591 54.1214 30.3254 54.1214Z" fill="#22A699"/>
</svg>
