<svg width="100" height="94" viewBox="0 0 100 94" fill="none" xmlns="http://www.w3.org/2000/svg">
<g id="Frame 107">
<path id="Vector" d="M21.9 41.0815C21.1 40.3852 20.2 39.9873 19.2 39.9873C17.1 39.9873 15.4 41.6783 15.4 43.7672C15.4 44.7619 15.8 45.6572 16.4 46.3535C16.5 46.4529 16.5 46.4529 16.6 46.5524L27.2 56.4995C27.2 56.4995 28.6 57.5937 28.6 58.9863C28.6 59.8815 27.8 60.7767 27.8 60.7767C27.8 60.7767 26.6 62.3683 25.4 62.1693C24 61.8709 22.5 60.3788 22.5 60.3788L9.6 49.3376V23.7736C9.6 21.6847 7.9 19.9937 5.8 19.9937C3.7 19.9937 2 21.6847 2 23.7736L0 53.8138L27.4 77.1894C27.4 77.1894 25.1 93.2042 25.5 94H45V63.9598L21.9 41.0815Z" fill="#22A699"/>
<path id="Vector_2" d="M78.1 41.0815C78.9 40.3852 79.8 39.9873 80.8 39.9873C82.9 39.9873 84.6 41.6783 84.6 43.7672C84.6 44.7619 84.2 45.6572 83.6 46.3535C83.5 46.4529 83.5 46.4529 83.4 46.5524L72.8 56.4C72.8 56.4 71.4 57.4942 71.4 58.8868C71.4 59.782 72.2 60.6773 72.2 60.6773C72.2 60.6773 73.4 62.2688 74.6 62.0699C76 61.8709 77.5 60.3788 77.5 60.3788L90.3 49.3376V23.7736C90.3 21.6847 92 19.9937 94.1 19.9937C96.2 19.9937 97.9 21.6847 97.9 23.7736L100 53.9132L72.6 77.1894C72.6 77.1894 74.9 93.2042 74.5 94H55V63.9598L78.1 41.0815Z" fill="#22A699"/>
<path id="Vector_3" d="M50 0C36.9 0 26.3 10.5439 26.3 23.5746C26.3 36.5058 36.9 47.0497 50 47.0497C63.1001 47.0497 73.7 36.5058 73.7 23.4751C73.7 10.5439 63.1001 0 50 0ZM48.3 20.1926C48.8 20.6899 49.6 21.1873 50.8 21.6846C52 22.182 53.1001 22.6794 53.9001 23.0772C54.7001 23.4751 55.4001 23.9725 55.9001 24.5693C56.4001 25.1661 56.9001 25.763 57.2001 26.4592C57.5 27.1555 57.6 27.9513 57.6 28.946C57.6 30.7365 57 32.1291 56 33.2233C54.9 34.3174 53.4 34.9143 51.5 35.1132V38.1968H49V35.1132C46.9 34.9143 45.2 34.1185 44.1 32.8254C42.9 31.5323 42.4001 29.8413 42.4001 27.7524H46.9001C46.9001 28.946 47.2 29.9407 47.8 30.5376C48.4 31.2339 49.2 31.5323 50.3 31.5323C51.2 31.5323 51.9 31.3333 52.5 30.836C53 30.3386 53.3 29.7418 53.3 28.8465C53.3 27.9513 53.1 27.3545 52.6 26.8571C52.1 26.3598 51.3001 25.8624 50.2001 25.4645C49.1 25.0667 48.1 24.6688 47.3 24.1714C46.5 23.6741 45.8001 23.2762 45.2001 22.7788C44.6 22.2815 44.2 21.5852 43.8 20.8889C43.5 20.1926 43.3 19.2973 43.3 18.3026C43.3 16.5122 43.9 15.1196 45 14.0254C46.1 12.9312 47.6 12.2349 49.5 12.036V8.75344H52V12.1354C53.8 12.4339 55.3 13.1302 56.3 14.4233C57.3 15.7164 57.9001 17.3079 57.9001 19.2973H53.4001C53.4001 18.1037 53.1 17.109 52.6 16.5122C52.1 15.9153 51.2 15.6169 50.3 15.6169C49.4 15.6169 48.8 15.8159 48.3 16.3132C47.8 16.8106 47.6 17.4074 47.6 18.3026C47.6 19.0984 47.9 19.7947 48.3 20.1926Z" fill="#22A699"/>
</g>
</svg>
