<svg width="114" height="100" viewBox="0 0 114 100" fill="none" xmlns="http://www.w3.org/2000/svg">
<g id="Group 35667">
<g id="Group">
<path id="Vector" d="M45.9043 0.50061C45.9043 0.50061 48.5673 2.37796 50.9766 1.62702C56.4293 0.12514 57.8242 2.62827 57.8242 2.62827L57.4438 3.37921C57.4438 3.37921 55.5417 1.50186 50.9766 2.75343C48.5673 3.37921 45.9043 1.50186 45.9043 1.50186V0.50061Z" fill="#22A699"/>
<path id="Vector_2" d="M57.4436 3.37922C57.4436 3.37922 57.19 3.1289 56.556 2.87859C56.0488 2.62828 55.1611 2.37797 53.893 2.37797C53.0054 2.37797 51.9909 2.50312 50.8496 2.87859C50.4692 2.87859 50.2156 2.87859 49.7084 2.87859C47.6795 2.87859 45.7773 1.50187 45.7773 1.50187L45.9042 0.375462C45.9042 0.375462 47.8063 1.75218 49.8352 1.75218C50.2156 1.75218 50.596 1.75218 50.9765 1.62703C52.1177 1.25156 53.259 1.1264 54.1466 1.1264C54.9075 1.1264 56.1756 1.25156 57.0632 1.87734C57.5704 2.25281 57.8241 2.62828 57.8241 2.62828L57.4436 3.37922ZM53.893 2.25281C55.1611 2.25281 56.0488 2.50312 56.556 2.75343C57.0632 3.00375 57.3168 3.25406 57.4436 3.25406L57.8241 2.50312C57.8241 2.50312 57.5704 2.12765 57.0632 1.75218C56.1756 1.1264 55.0343 1.00124 54.1466 1.00124C53.259 1.00124 52.1177 1.1264 50.9765 1.50187C50.596 1.62703 50.2156 1.62703 49.8352 1.62703C47.9331 1.62703 46.031 0.375462 45.9042 0.250305L45.7773 1.25156C45.9042 1.37671 47.8063 2.62828 49.7084 2.62828C50.0888 2.62828 50.4692 2.62828 50.8496 2.50312C51.9909 2.37797 53.0054 2.25281 53.893 2.25281Z" fill="#22A699"/>
</g>
<g id="Group_2">
<path id="Vector_3" d="M45.6504 4.75592C45.6504 4.75592 48.3133 6.63327 50.7227 5.88233C56.1754 4.38045 57.1899 6.50811 57.1899 6.50811C57.4435 7.25905 57.1899 7.63452 57.1899 7.63452C57.1899 7.63452 55.2878 5.75717 50.7227 7.00874C48.3133 7.63452 45.6504 5.75717 45.6504 5.75717V4.75592Z" fill="#22A699"/>
<path id="Vector_4" d="M57.1902 7.63453C57.1902 7.63453 56.9366 7.38421 56.3026 7.1339C55.7953 6.88359 54.9077 6.63328 53.6396 6.63328C52.752 6.63328 51.7375 6.75843 50.5962 7.1339C50.2158 7.25906 49.8354 7.25906 49.455 7.25906C47.426 7.25906 45.5239 5.88234 45.5239 5.88234L45.6507 4.75593C45.6507 4.75593 47.5528 6.13265 49.5818 6.13265C49.9622 6.13265 50.3426 6.13265 50.723 6.00749C51.9911 5.63202 53.2592 5.50687 54.1468 5.50687C56.5562 5.50687 57.0634 6.63328 57.0634 6.63328C57.1902 7.00874 57.1902 7.25906 57.1902 7.50937C57.317 7.50937 57.1902 7.63453 57.1902 7.63453ZM53.6396 6.50812C54.9077 6.50812 55.7953 6.75843 56.3026 7.00874C56.8098 7.25906 57.0634 7.50937 57.1902 7.50937C57.1902 7.38421 57.4438 7.00874 57.1902 6.38296C57.1902 6.38296 56.683 5.25655 54.2736 5.25655C53.2592 5.25655 52.1179 5.38171 50.8498 5.75718C50.4694 5.88234 50.089 5.88234 49.7086 5.88234C47.8065 5.88234 45.9043 4.63077 45.7775 4.50562L45.6507 5.50687C45.7775 5.63202 47.6797 6.88359 49.5818 6.88359C49.9622 6.88359 50.3426 6.88359 50.723 6.75843C51.7375 6.75843 52.752 6.50812 53.6396 6.50812Z" fill="#22A699"/>
</g>
<g id="Group_3">
<path id="Vector_5" d="M45.7773 2.6283C45.7773 2.6283 48.4403 4.50564 50.8496 3.7547C56.3024 2.25283 57.3168 4.38049 57.3168 4.38049C57.5705 4.75596 57.3168 5.38174 57.3168 5.38174C57.3168 5.38174 55.4147 3.50439 50.8496 4.75596C48.4403 5.38174 45.7773 3.50439 45.7773 3.50439V2.6283Z" fill="#22A699"/>
<path id="Vector_6" d="M57.3172 5.5069C57.3172 5.5069 57.0636 5.25659 56.4295 5.00628C55.9223 4.75596 55.0346 4.50565 53.7666 4.50565C52.8789 4.50565 51.8644 4.63081 50.7232 5.00628C50.3428 5.13143 49.9623 5.13143 49.5819 5.13143C47.553 5.13143 45.6509 3.75471 45.6509 3.75471L45.7777 2.6283C45.7777 2.6283 47.6798 4.00502 49.7087 4.00502C50.0891 4.00502 50.4696 4.00502 50.85 3.87987C52.1181 3.5044 53.2593 3.37924 54.2738 3.37924C55.5419 3.37924 56.3027 3.75471 56.6831 4.00502C57.1904 4.25534 57.3172 4.63081 57.3172 4.63081C57.444 4.88112 57.444 5.13143 57.3172 5.25659V5.5069ZM53.7666 4.38049C55.0346 4.38049 55.9223 4.63081 56.4295 4.88112C56.9368 5.13143 57.1904 5.38175 57.3172 5.38175C57.3172 5.25659 57.5708 4.63081 57.3172 4.38049C57.3172 4.38049 57.1904 4.13018 56.6831 3.75471C56.3027 3.5044 55.5419 3.12893 54.2738 3.12893C53.2593 3.12893 52.1181 3.25409 50.85 3.62956C50.4696 3.75471 50.0891 3.75471 49.7087 3.75471C47.8066 3.75471 45.9045 2.50315 45.7777 2.37799L45.6509 3.37924C45.7777 3.5044 47.6798 4.75596 49.5819 4.75596C49.9623 4.75596 50.3428 4.75596 50.7232 4.63081C51.8644 4.50565 52.8789 4.38049 53.7666 4.38049Z" fill="#22A699"/>
</g>
<path id="Vector_7" d="M46.2848 0H45.1436V32.2904H46.2848V0Z" fill="#22A699"/>
<g id="Group_4">
<path id="Vector_8" d="M9.76465 20.776C9.76465 20.776 12.4276 22.6533 14.837 21.9024C20.2897 20.4005 21.6846 22.9037 21.6846 22.9037L21.3041 23.6546C21.3041 23.6546 19.402 21.7773 14.837 23.0288C12.4276 23.6546 9.76465 21.7773 9.76465 21.7773V20.776Z" fill="#22A699"/>
<path id="Vector_9" d="M21.304 23.6546C21.304 23.6546 21.0504 23.4043 20.4163 23.1539C19.9091 22.9036 19.0215 22.6533 17.7534 22.6533C16.8657 22.6533 15.8513 22.7785 14.71 23.1539C14.3296 23.2791 13.9492 23.2791 13.5687 23.2791C11.5398 23.2791 9.6377 21.9024 9.6377 21.9024L9.7645 20.776C9.7645 20.776 11.6666 22.1527 13.6955 22.1527C14.076 22.1527 14.4564 22.1527 14.8368 22.0275C15.9781 21.6521 17.1193 21.5269 18.007 21.5269C18.7678 21.5269 20.0359 21.6521 20.9236 22.2779C21.4308 22.6533 21.6844 23.0288 21.6844 23.0288L21.304 23.6546ZM17.7534 22.6533C19.0215 22.6533 19.9091 22.9036 20.4163 23.1539C20.9236 23.4043 21.1772 23.6546 21.304 23.6546L21.6844 22.9036C21.6844 22.9036 21.4308 22.5282 20.9236 22.1527C20.0359 21.5269 18.8946 21.4018 18.007 21.4018C17.1193 21.4018 15.9781 21.5269 14.8368 21.9024C14.4564 22.0275 14.076 22.0275 13.6955 22.0275C11.7934 22.0275 9.89131 20.776 9.7645 20.6508L9.6377 21.6521C9.7645 21.7772 11.6666 23.0288 13.5687 23.0288C13.9492 23.0288 14.3296 23.0288 14.71 22.9036C15.8513 22.7785 16.8657 22.6533 17.7534 22.6533Z" fill="#22A699"/>
</g>
<g id="Group_5">
<path id="Vector_10" d="M9.51025 25.0313C9.51025 25.0313 12.1732 26.9087 14.5826 26.1577C20.0353 24.6558 21.0497 26.7835 21.0497 26.7835C21.3034 27.5344 21.0497 27.9099 21.0497 27.9099C21.0497 27.9099 19.1476 26.0326 14.5826 27.2841C12.1732 27.9099 9.51025 26.0326 9.51025 26.0326V25.0313Z" fill="#22A699"/>
<path id="Vector_11" d="M21.0501 27.9099C21.0501 27.9099 20.7965 27.6596 20.1624 27.4093C19.6552 27.1589 18.7675 26.9086 17.4995 26.9086C16.6118 26.9086 15.5974 27.0338 14.4561 27.4093C14.0757 27.5344 13.6952 27.5344 13.3148 27.5344C11.2859 27.5344 9.38379 26.1577 9.38379 26.1577L9.5106 25.0313C9.5106 25.0313 11.4127 26.408 13.4416 26.408C13.8221 26.408 14.2025 26.408 14.5829 26.2828C15.851 25.9074 17.1191 25.7822 18.0067 25.7822C20.416 25.7822 20.9233 26.9086 20.9233 26.9086C21.0501 27.2841 21.0501 27.5344 21.0501 27.7847C21.1769 27.9099 21.0501 27.9099 21.0501 27.9099ZM17.6263 26.9086C18.8944 26.9086 19.782 27.1589 20.2892 27.4093C20.7965 27.6596 21.0501 27.9099 21.1769 27.9099C21.1769 27.7847 21.4305 27.4093 21.1769 26.7835C21.1769 26.7835 20.6697 25.6571 18.2603 25.6571C17.2459 25.6571 16.1046 25.7822 14.8365 26.1577C14.4561 26.2828 14.0757 26.2828 13.6952 26.2828C11.7931 26.2828 9.89102 25.0313 9.76421 24.9061L9.5106 26.1577C9.6374 26.2828 11.5395 27.5344 13.4416 27.5344C13.8221 27.5344 14.2025 27.5344 14.5829 27.4093C15.5974 27.0338 16.6118 26.9086 17.6263 26.9086Z" fill="#22A699"/>
</g>
<g id="Group_6">
<path id="Vector_12" d="M9.63721 22.9036C9.63721 22.9036 12.3002 24.781 14.7095 24.03C20.1622 22.5282 21.1767 24.6558 21.1767 24.6558C21.4303 25.0313 21.1767 25.6571 21.1767 25.6571C21.1767 25.6571 19.2746 23.7797 14.7095 25.0313C12.3002 25.6571 9.63721 23.7797 9.63721 23.7797V22.9036Z" fill="#22A699"/>
<path id="Vector_13" d="M21.177 25.7822C21.177 25.7822 20.9234 25.5319 20.2894 25.2816C19.7822 25.0313 18.8945 24.781 17.6264 24.781C16.7388 24.781 15.7243 24.9061 14.583 25.2816C14.2026 25.4068 13.8222 25.4068 13.4418 25.4068C11.4129 25.4068 9.51074 24.03 9.51074 24.03L9.63755 22.9036C9.63755 22.9036 11.5397 24.2804 13.5686 24.2804C13.949 24.2804 14.3294 24.2804 14.7099 24.1552C15.9779 23.7797 17.1192 23.6546 18.1337 23.6546C19.4017 23.6546 20.1626 24.03 20.543 24.2804C21.0502 24.5307 21.177 24.9061 21.177 24.9061C21.3038 25.1565 21.3038 25.4068 21.177 25.5319C21.177 25.6571 21.177 25.7822 21.177 25.7822ZM17.6264 24.6558C18.8945 24.6558 19.7822 24.9061 20.2894 25.1564C20.7966 25.4068 21.0502 25.6571 21.177 25.6571C21.177 25.5319 21.4307 24.9061 21.177 24.6558C21.177 24.6558 21.0502 24.4055 20.543 24.03C20.1626 23.7797 19.4017 23.4043 18.1337 23.4043C17.1192 23.4043 15.9779 23.5294 14.7099 23.9049C14.3294 24.03 13.949 24.03 13.5686 24.03C11.6665 24.03 9.76436 22.7785 9.63755 22.6533L9.51074 23.9049C9.63755 24.03 11.5397 25.2816 13.4418 25.2816C13.8222 25.2816 14.2026 25.2816 14.583 25.1564C15.7243 24.9061 16.7388 24.6558 17.6264 24.6558Z" fill="#22A699"/>
</g>
<path id="Vector_14" d="M10.1447 20.2753H9.00342V44.9312H10.1447V20.2753Z" fill="#22A699"/>
<g id="Group_7">
<path id="Vector_15" d="M84.9609 20.776C84.9609 20.776 87.6239 22.6533 90.0332 21.9024C95.486 20.4005 96.8809 22.9037 96.8809 22.9037L96.5004 23.6546C96.5004 23.6546 94.5983 21.7773 90.0332 23.0288C87.6239 23.6546 84.9609 21.7773 84.9609 21.7773V20.776Z" fill="#22A699"/>
<path id="Vector_16" d="M96.5003 23.6546C96.5003 23.6546 96.2467 23.4043 95.6126 23.1539C95.1054 22.9036 94.2177 22.6533 92.9497 22.6533C92.062 22.6533 91.0476 22.7785 89.9063 23.1539C89.5259 23.2791 89.1454 23.2791 88.765 23.2791C86.7361 23.2791 84.834 21.9024 84.834 21.9024L84.9608 20.776C84.9608 20.776 86.8629 22.1527 88.8918 22.1527C89.2722 22.1527 89.6527 22.1527 90.0331 22.0275C91.1744 21.6521 92.3156 21.5269 93.2033 21.5269C93.9641 21.5269 95.2322 21.6521 96.1199 22.2779C96.6271 22.6533 96.8807 23.0288 96.8807 23.0288L96.5003 23.6546ZM92.9497 22.6533C94.2177 22.6533 95.1054 22.9036 95.6126 23.1539C96.1199 23.4043 96.3735 23.6546 96.5003 23.6546L96.8807 22.9036C96.8807 22.9036 96.6271 22.5282 96.1199 22.1527C95.2322 21.5269 94.0909 21.4018 93.2033 21.4018C92.3156 21.4018 91.1744 21.5269 90.0331 21.9024C89.6527 22.0275 89.2722 22.0275 88.8918 22.0275C86.9897 22.0275 85.0876 20.776 84.9608 20.6508L84.834 21.6521C84.9608 21.7772 86.8629 23.0288 88.765 23.0288C89.1454 23.0288 89.5259 23.0288 89.9063 22.9036C91.0476 22.7785 92.062 22.6533 92.9497 22.6533Z" fill="#22A699"/>
</g>
<g id="Group_8">
<path id="Vector_17" d="M84.707 25.0313C84.707 25.0313 87.37 26.9087 89.7793 26.1577C95.2321 24.6558 96.2465 26.7835 96.2465 26.7835C96.5001 27.5344 96.2465 27.9099 96.2465 27.9099C96.2465 27.9099 94.3444 26.0326 89.7793 27.2841C87.37 27.9099 84.707 26.0326 84.707 26.0326V25.0313Z" fill="#22A699"/>
<path id="Vector_18" d="M96.2469 27.9099C96.2469 27.9099 95.9932 27.6596 95.3592 27.4093C94.852 27.1589 93.9643 26.9086 92.6963 26.9086C91.8086 26.9086 90.7941 27.0338 89.6529 27.4093C89.2724 27.5344 88.892 27.5344 88.5116 27.5344C86.4827 27.5344 84.5806 26.1577 84.5806 26.1577L84.7074 25.0313C84.7074 25.0313 86.6095 26.408 88.6384 26.408C89.0188 26.408 89.3993 26.408 89.7797 26.2828C91.0478 25.9074 92.3158 25.7822 93.2035 25.7822C95.6128 25.7822 96.1201 26.9086 96.1201 26.9086C96.2469 27.2841 96.2469 27.5344 96.2469 27.7847C96.3737 27.9099 96.2469 27.9099 96.2469 27.9099ZM92.6963 26.9086C93.9643 26.9086 94.852 27.1589 95.3592 27.4093C95.8664 27.6596 96.1201 27.9099 96.2469 27.9099C96.2469 27.7847 96.5005 27.4093 96.2469 26.7835C96.2469 26.7835 95.7396 25.6571 93.3303 25.6571C92.3158 25.6571 91.1746 25.7822 89.9065 26.1577C89.5261 26.2828 89.1456 26.2828 88.7652 26.2828C86.8631 26.2828 84.961 25.0313 84.8342 24.9061L84.7074 25.9074C84.8342 26.0325 86.7363 27.2841 88.6384 27.2841C89.0188 27.2841 89.3993 27.2841 89.7797 27.1589C90.7941 27.0338 91.8086 26.9086 92.6963 26.9086Z" fill="#22A699"/>
</g>
<g id="Group_9">
<path id="Vector_19" d="M84.834 22.9036C84.834 22.9036 87.4969 24.781 89.9063 24.03C95.359 22.5282 96.3735 24.6558 96.3735 24.6558C96.6271 25.0313 96.3735 25.6571 96.3735 25.6571C96.3735 25.6571 94.4714 23.7797 89.9063 25.0313C87.4969 25.6571 84.834 23.7797 84.834 23.7797V22.9036Z" fill="#22A699"/>
<path id="Vector_20" d="M96.3738 25.7822C96.3738 25.7822 96.1202 25.5319 95.4862 25.2816C94.9789 25.0313 94.0913 24.781 92.8232 24.781C91.9355 24.781 90.9211 24.9061 89.7798 25.2816C89.3994 25.4068 89.019 25.4068 88.6386 25.4068C86.6096 25.4068 84.7075 24.03 84.7075 24.03L84.8343 22.9036C84.8343 22.9036 86.7364 24.2804 88.7654 24.2804C89.1458 24.2804 89.5262 24.2804 89.9066 24.1552C91.1747 23.7797 92.316 23.6546 93.3304 23.6546C94.5985 23.6546 95.3593 24.03 95.7398 24.2804C96.247 24.5307 96.3738 24.9061 96.3738 24.9061C96.5006 25.1565 96.5006 25.4068 96.3738 25.5319C96.3738 25.6571 96.3738 25.7822 96.3738 25.7822ZM92.8232 24.6558C94.0913 24.6558 94.9789 24.9061 95.4862 25.1564C95.9934 25.4068 96.247 25.6571 96.3738 25.6571C96.3738 25.5319 96.6274 24.9061 96.3738 24.6558C96.3738 24.6558 96.247 24.4055 95.7398 24.03C95.3593 23.7797 94.5985 23.4043 93.3304 23.4043C92.316 23.4043 91.1747 23.5294 89.9066 23.9049C89.5262 24.03 89.1458 24.03 88.7654 24.03C86.8632 24.03 84.9611 22.7785 84.8343 22.6533L84.7075 23.6546C84.8343 23.7797 86.7364 25.0313 88.6386 25.0313C89.019 25.0313 89.3994 25.0313 89.7798 24.9061C90.9211 24.9061 91.9355 24.6558 92.8232 24.6558Z" fill="#22A699"/>
</g>
<path id="Vector_21" d="M85.3415 20.2753H84.2002V44.9312H85.3415V20.2753Z" fill="#22A699"/>
<path id="Vector_22" d="M28.9117 42.8035L26.2487 41.6771C26.2487 41.6771 26.5023 41.4268 26.5023 41.0513C26.5023 40.6759 26.1219 40.4255 25.6147 40.4255H25.1074L23.2053 39.0488C23.459 39.0488 23.7126 38.7985 23.7126 38.423C23.7126 38.0476 23.459 37.7973 23.2053 37.7973H22.0641C22.8249 37.1715 24.2198 35.6696 20.796 33.5419C21.0496 33.4168 20.9228 33.0413 20.5424 33.0413H20.0351C20.4156 32.791 20.5424 31.2891 19.5279 29.5369H19.4011C18.2598 31.2891 18.5135 32.791 18.8939 33.0413H18.3866C18.0062 33.0413 17.8794 33.4168 18.133 33.5419C14.7092 35.6696 16.1041 37.1715 16.865 37.7973H15.8505C15.5969 37.7973 15.3433 38.0476 15.3433 38.423C15.3433 38.7985 15.5969 39.0488 15.8505 39.0488L13.9484 40.4255H13.4412C12.9339 40.4255 12.5535 40.6759 12.5535 41.0513C12.5535 41.3016 12.8071 41.6771 12.8071 41.6771L10.0173 42.8035H10.1442C9.00289 42.8035 8.11523 43.8048 8.11523 45.0563C8.11523 46.3079 9.00289 47.3091 10.1442 47.3091H29.0385C30.1798 47.3091 31.0674 46.3079 31.0674 45.0563C31.0674 43.8048 30.0529 42.8035 28.9117 42.8035Z" fill="#22A699"/>
<path id="Vector_23" d="M103.856 42.8035L101.193 41.6771C101.193 41.6771 101.446 41.4268 101.446 41.0513C101.446 40.6759 101.066 40.4255 100.559 40.4255H100.051L98.1492 39.0488C98.4028 39.0488 98.6564 38.7985 98.6564 38.423C98.6564 38.0476 98.4028 37.7973 98.1492 37.7973H97.0079C97.7688 37.1715 99.1636 35.6696 95.7398 33.5419C95.9935 33.4168 95.8667 33.0413 95.4862 33.0413H94.979C95.3594 32.791 95.4862 31.2891 94.4718 29.5369H94.345C93.2037 31.2891 93.4573 32.791 93.8377 33.0413H93.3305C92.9501 33.0413 92.8233 33.4168 93.0769 33.5419C89.6531 35.6696 91.048 37.1715 91.8088 37.7973H90.6675C90.4139 37.7973 90.1603 38.0476 90.1603 38.423C90.1603 38.7985 90.4139 39.0488 90.6675 39.0488L88.8922 40.4255H88.385C87.8778 40.4255 87.4973 40.6759 87.4973 41.0513C87.4973 41.3016 87.751 41.6771 87.751 41.6771L84.9612 42.8035H85.088C83.9467 42.8035 83.0591 43.8048 83.0591 45.0563C83.0591 46.3079 83.9467 47.3091 85.088 47.3091H103.982C105.124 47.3091 106.011 46.3079 106.011 45.0563C106.011 43.8048 104.997 42.8035 103.856 42.8035Z" fill="#22A699"/>
<path id="Vector_24" d="M68.9835 27.1589L65.5597 25.7822C65.5597 25.7822 65.8133 25.4068 65.8133 25.0313C65.8133 24.5307 65.3061 24.2803 64.672 24.2803H63.9112L61.5019 22.403C61.8823 22.403 62.2627 22.0275 62.2627 21.6521C62.2627 21.2766 62.0091 20.9011 61.5019 20.9011H60.107C61.1214 20.1502 63.0235 18.1477 58.4585 15.3942C58.7121 15.2691 58.5853 14.7685 58.078 14.7685H57.444C57.8244 14.393 58.0781 12.5156 56.6832 10.2628H56.5564C55.1615 12.5156 55.4151 14.5181 55.7955 14.7685H55.1615C54.6542 14.7685 54.5274 15.1439 54.7811 15.3942C50.3428 18.1477 52.1181 20.1502 53.1326 20.9011H51.7377C51.3572 20.9011 50.9768 21.2766 50.9768 21.6521C50.9768 22.0275 51.2304 22.403 51.7377 22.403L49.5819 24.1552H48.8211C48.1871 24.1552 47.6798 24.5307 47.6798 24.9061C47.6798 25.2816 47.9334 25.6571 47.9334 25.6571L44.3828 27.0338H44.5096C42.9879 27.0338 41.8467 28.2853 41.8467 29.9124C41.8467 31.5394 42.9879 32.791 44.5096 32.791H68.9835C70.5052 32.791 71.6465 31.5394 71.6465 29.9124C71.6465 28.2853 70.5052 27.1589 68.9835 27.1589Z" fill="#22A699"/>
<path id="Vector_25" d="M79.7609 81.3517C79.6342 80.3504 79.5075 79.3492 79.2541 78.4731C79.1274 79.224 79.0007 79.8498 78.874 80.6007C79.2541 80.8511 79.5075 81.1014 79.7609 81.3517Z" fill="#22A699"/>
<path id="Vector_26" d="M34.9988 80.3505C35.3793 79.975 35.7597 79.7247 36.1401 79.3492C35.7597 77.597 35.5061 75.97 35.1256 74.343C34.7452 76.5958 34.3648 78.9737 33.9844 81.3517C34.3648 80.9762 34.7452 80.7259 34.9988 80.3505Z" fill="#22A699"/>
<path id="Vector_27" d="M78.7477 80.3505C78.8745 80.3505 78.8745 80.4756 79.0013 80.4756C79.1281 79.7247 79.2549 79.0989 79.3817 78.348C79.2549 77.2216 79.0013 76.0952 78.8745 74.9688C78.494 76.4706 78.2404 77.9725 77.9868 79.4744C78.1136 79.8499 78.494 80.1002 78.7477 80.3505Z" fill="#22A699"/>
<g id="Group_10">
<path id="Vector_28" d="M19.5284 48.3104H11.6663C5.57953 64.9562 1.90211 80.6007 0 100H19.5284H25.8687C25.9955 93.1164 28.7853 86.4831 33.8576 81.3517C34.238 78.8485 34.6185 76.5957 34.9989 74.3429C33.0968 65.4568 30.5606 57.0713 27.2636 48.3104H19.5284ZM21.0501 98.6233H1.52169C3.4238 79.5995 6.7208 66.0826 12.9344 49.8122H21.0501V98.6233Z" fill="#22A699"/>
<path id="Vector_29" d="M102.334 48.3104H94.4717H86.6096C83.1858 57.3216 80.6497 65.9574 78.7476 75.0938C79.0012 76.2203 79.128 77.3467 79.2548 78.4731C81.1569 68.7109 83.9467 59.8248 87.7509 49.8122H95.8666V98.6233H87.7509V99.8748H94.4717H114C112.225 80.6007 108.547 64.9562 102.334 48.3104Z" fill="#22A699"/>
<path id="Vector_30" d="M56.9365 33.9174H46.7919C41.2124 48.5607 37.9154 59.199 35.2524 74.3429C35.6329 75.9699 36.0133 77.7221 36.2669 79.3492C36.3937 79.224 36.6473 79.0988 36.7741 78.9737C39.1835 64.0801 42.7341 51.5644 48.4404 36.4205H56.9365V54.9436C58.585 57.5719 58.2046 59.8247 57.6974 60.2002H58.4582C59.0923 60.2002 59.2191 60.7008 58.8387 60.9512C64.2914 64.3304 62.0088 66.5832 60.8676 67.4593H62.6429C63.1501 67.4593 63.5305 67.8348 63.5305 68.4605C63.5305 69.0863 63.1501 69.4618 62.6429 69.4618L65.5595 71.7146H66.4471C67.208 71.7146 67.842 72.0901 67.842 72.7159C67.842 73.2165 67.5884 73.7171 67.5884 73.7171H66.8275C71.0122 74.9687 74.8164 76.9712 77.9866 79.7246C78.2402 78.2227 78.6206 76.7209 78.8742 75.219C75.9577 58.448 72.2803 46.6833 67.208 34.0425H56.9365V33.9174Z" fill="#22A699"/>
<path id="Vector_31" d="M56.6829 54.8185C55.0344 57.5719 55.2881 59.8247 55.7953 60.2002H55.1612C54.5272 60.2002 54.4004 60.7008 54.7808 60.9511C49.3281 64.3304 51.6106 66.5832 52.7519 67.4593H50.9766C50.4694 67.4593 50.0889 67.8348 50.0889 68.4605C50.0889 69.0863 50.4694 69.4618 50.9766 69.4618L48.1868 71.7146H47.2992C46.5383 71.7146 45.9043 72.0901 45.9043 72.7159C45.9043 73.2165 46.1579 73.7171 46.1579 73.7171H47.1724C50.2158 72.841 53.5128 72.2152 56.9366 72.2152V54.9436C56.9366 54.9436 56.8097 54.9436 56.6829 54.8185Z" fill="#22A699"/>
</g>
<path id="Vector_32" d="M77.3528 81.8523C71.9 76.8461 64.5452 74.2178 56.8099 74.2178C49.0747 74.2178 41.7198 76.9712 36.2671 81.8523C30.9412 86.7334 27.8978 93.1164 27.771 99.8748H85.7221C85.7221 93.1164 82.8055 86.7334 77.3528 81.8523Z" fill="#22A699"/>
</g>
</svg>
