<svg width="129" height="129" viewBox="0 0 129 129" fill="none" xmlns="http://www.w3.org/2000/svg">
<path id="Vector" d="M127.083 125.846H114.877C117.318 124.699 119.616 123.122 121.769 120.971C127.944 114.806 130.385 105.63 128.231 97.1712L127.944 96.3109L127.083 96.1675C124.929 95.5941 122.775 95.3073 120.621 95.3073C119.903 95.3073 119.328 95.3073 118.61 95.4507C117.749 92.87 116.456 90.2893 114.733 87.9953L114.302 87.2784L113.441 87.4218C111.431 87.7085 109.42 88.1386 107.697 88.9989C105.543 85.7013 102.528 82.9772 99.0813 80.97L98.3633 80.5399L97.5017 80.8266C94.0554 82.8338 91.0399 85.5579 88.886 88.8555C87.0192 88.1386 85.1525 87.5652 83.1421 87.2784H82.2805L81.7062 87.9953C79.983 90.2893 78.6906 92.7266 77.8291 95.4507C77.1111 95.4507 76.5367 95.3073 75.8187 95.3073C73.6648 95.3073 71.5108 95.5941 69.3569 96.1675L68.4953 96.3109L68.3517 97.1712C66.0542 105.63 68.4953 114.806 74.6699 120.971C76.6803 122.978 78.9778 124.555 81.5626 125.846H71.3672C70.6493 112.512 60.1667 101.902 46.9559 100.612L59.018 28.7822C59.018 28.4954 59.018 28.352 58.8744 28.2087C59.5924 27.3484 60.5975 25.9147 60.5975 24.0508C60.5975 22.3304 59.8796 20.6099 58.3 19.0328C56.864 17.5991 56.1461 16.022 56.1461 14.3015C56.2897 11.7208 58.3 9.8569 58.3 9.8569C58.4436 9.71353 60.5975 7.84968 60.5975 5.12559C60.5975 3.40511 59.8796 1.68463 58.3 0.10753C58.1564 -0.0358433 58.0128 -0.0358433 58.0128 0.10753C57.8692 0.250903 57.8692 0.394277 58.0128 0.394277C59.4488 1.82801 60.1667 3.40511 60.1667 5.12559C60.1667 7.70631 58.0128 9.57016 58.0128 9.57016C57.8692 9.71353 55.7153 11.5774 55.7153 14.3015C55.7153 16.022 56.4333 17.7424 58.0128 19.3195C59.4488 20.7533 60.1667 22.3304 60.1667 24.0508C60.1667 25.7713 59.1616 27.2051 58.5872 27.9219C58.4436 27.9219 58.4436 27.7786 58.3 27.7786C57.8692 27.6352 57.2948 28.0653 57.2948 28.4954L45.2328 100.469C44.9456 100.469 44.802 100.469 44.5148 100.469C44.2276 100.469 44.084 100.469 43.7968 100.469L31.7347 28.4954C31.5911 28.0653 31.1603 27.6352 30.7296 27.7786C30.586 27.7786 30.586 27.9219 30.586 27.9219C29.4372 26.6316 28.8628 25.1978 28.8628 23.7641C29.0064 21.1834 31.0167 19.3195 31.0167 19.3195C31.1603 19.1762 33.3143 17.3123 33.3143 14.5882C33.3143 12.8677 32.5963 11.1473 31.0167 9.57016C30.8732 9.42679 30.7296 9.42679 30.7296 9.57016C30.586 9.71353 30.586 9.8569 30.7296 9.8569C32.1655 11.2906 32.8835 12.8677 32.8835 14.5882C32.7399 17.1689 30.7296 19.0328 30.7296 19.0328C30.586 19.1762 28.432 21.04 28.432 23.7641C28.432 25.3412 29.0064 26.7749 30.1552 28.0653C30.0116 28.352 30.0116 28.4954 30.0116 28.7822L42.0736 100.612C34.1759 101.329 27.4268 105.487 22.9754 111.508L22.5446 109.788C22.2574 108.068 20.5342 104.627 18.6675 102.763C19.8163 99.3218 18.2367 96.5977 18.2367 96.4543C18.2367 96.4543 16.3699 93.0133 18.2367 89.2856C18.2367 89.1423 18.2367 88.9989 18.0931 88.9989C17.9495 88.9989 17.8059 88.9989 17.8059 89.1423C15.7956 93.1567 17.6623 96.5977 17.8059 96.741C17.8059 96.741 19.2419 99.3218 18.3803 102.476C17.6623 101.902 17.0879 101.616 16.5135 101.616C16.2264 101.616 15.7956 101.759 15.5084 101.902C11.6313 92.7266 16.0828 84.6977 16.0828 84.6977C16.0828 84.5543 21.1086 75.6652 16.0828 65.6291C16.0828 65.4857 15.9392 65.4857 15.7956 65.4857C15.652 65.4857 15.652 65.6291 15.652 65.7724C20.5342 75.5218 15.652 84.2676 15.652 84.4109C15.652 84.5543 11.0569 92.7266 15.0776 102.189C12.9236 103.766 10.7697 108.068 10.4825 109.931L7.61059 121.831C7.3234 123.408 7.61059 124.986 8.47217 126.133H1.43596C0.574384 126.133 0 126.849 0 127.566C0 128.427 0.71798 129 1.43596 129H127.083C127.944 129 128.518 128.283 128.518 127.566C128.662 126.419 127.944 125.846 127.083 125.846ZM119.472 98.3181C119.903 98.3181 120.333 98.3181 120.764 98.3181C122.344 98.3181 123.923 98.4615 125.503 98.8916C127.083 106.06 124.929 113.802 119.616 118.964C115.882 122.692 111.143 124.842 105.974 125.272C105.4 125.272 104.825 125.416 104.251 125.416C103.533 125.416 102.815 125.416 102.097 125.272C103.246 124.412 104.251 123.408 105.256 122.405C109.707 117.53 112.436 111.078 112.436 104.34C112.436 103.049 112.292 101.616 112.149 100.325C113.584 99.6085 115.02 99.1784 116.6 98.8916C117.462 98.4615 118.467 98.3181 119.472 98.3181ZM113.01 90.4326C114.159 92.0097 115.164 93.8736 115.738 95.7374C114.302 96.0242 112.867 96.4543 111.574 97.0278C111 95.0206 110.282 93.1567 109.277 91.4362C110.425 91.0061 111.718 90.7194 113.01 90.4326ZM98.2197 83.9808C100.804 85.5579 103.102 87.7085 104.825 90.2893C105.4 91.1495 105.974 91.8664 106.405 92.87C107.41 94.7338 108.128 96.5977 108.559 98.6049C108.846 99.6085 108.989 100.612 109.133 101.759C109.277 102.619 109.277 103.48 109.277 104.34C109.277 110.361 106.979 116.24 102.958 120.541C102.097 121.401 101.235 122.261 100.23 122.978C99.9429 123.265 99.5121 123.552 99.2249 123.695C99.0813 123.839 98.7941 123.982 98.6505 124.125C98.5069 124.269 98.3633 124.269 98.2197 124.412C98.0761 124.269 97.9325 124.269 97.7889 124.125C97.6453 123.982 97.3581 123.839 97.2145 123.695C96.7837 123.408 96.4966 123.122 96.0658 122.835C95.0606 122.118 94.199 121.258 93.3374 120.398C89.3167 116.096 86.8756 110.218 86.8756 104.196C86.8756 103.336 86.8756 102.476 87.0192 101.616C87.1628 100.612 87.3064 99.4651 87.5936 98.4615C88.0244 96.4543 88.886 94.5905 89.7475 92.7266C90.0347 92.2965 90.1783 91.8664 90.4655 91.4362C90.7527 91.0061 91.0399 90.576 91.3271 90.1459C93.3374 87.7085 95.635 85.5579 98.2197 83.9808ZM83.5729 90.4326C84.8653 90.576 86.1576 91.0061 87.3064 91.4362C86.3012 93.1567 85.5833 95.0206 85.0089 97.0278C83.5729 96.4543 82.2805 96.0242 80.8446 95.7374C81.5626 93.8736 82.4241 92.1531 83.5729 90.4326ZM71.08 98.7483C73.0904 98.3182 75.1007 98.1748 77.1111 98.3181C77.6855 98.3181 78.1163 98.3182 78.6906 98.4615C79.265 98.4615 79.6958 98.6049 80.1266 98.7483C81.7062 99.035 83.1421 99.4651 84.5781 100.182C84.2909 101.472 84.2909 102.906 84.2909 104.196C84.2909 110.935 86.8756 117.387 91.3271 122.261C92.3323 123.265 93.3374 124.269 94.4862 125.129C93.7682 125.272 93.0502 125.272 92.3323 125.272C91.7579 125.272 91.1835 125.272 90.6091 125.129C85.4397 124.699 80.701 122.548 76.9675 118.821C71.6544 113.659 69.5005 106.06 71.08 98.7483ZM44.5148 103.48C57.1512 103.48 67.4902 113.372 68.3517 125.846H24.5549C25.4165 124.555 25.7037 123.122 25.4165 121.401L23.9805 115.38C28.0012 108.211 35.7554 103.48 44.5148 103.48Z" fill="#22A699"/>
</svg>
